<svg xmlns="http://www.w3.org/2000/svg" viewBox="0 0 56.15 46.88"><defs><style>.cls-1{fill:#007bff;}</style></defs><g id="Camada_2" data-name="Camada 2"><g id="Layer_2" data-name="Layer 2"><path class="cls-1" d="M2.58,13.8V46.88H54.16V13.8ZM18.09,27.25H14.3V31H11.55V27.25H7.75V24.5h3.8V20.71H14.3V24.5h3.79Zm6.64,7,3.52-6.94H24.73l7.32-8.45-2.71,6.37,3.32-.08Zm24.35-7H38.74V24.5H49.08Z"/><rect class="cls-1" y="7.8" width="56.15" height="3.95"/><path class="cls-1" d="M12.92,3V6.42h-6V3a3,3,0,0,1,6,0Z"/><path class="cls-1" d="M49.08,3V6.42h-6V3a3,3,0,0,1,3-3A3,3,0,0,1,48.2.88,3,3,0,0,1,49.08,3Z"/></g></g></svg>