<svg xmlns="http://www.w3.org/2000/svg" viewBox="0 0 56.95 56.94"><defs><style>.cls-1{fill:#007bff;}</style></defs><g id="Camada_2" data-name="Camada 2"><g id="Layer_2" data-name="Layer 2"><polygon class="cls-1" points="28.72 36.76 28.73 36.76 28.73 38.92 27.49 38.92 28.72 36.76"/><path class="cls-1" d="M38.75,14.41a4.1,4.1,0,0,0-1.21,8v4.84H29.69V22.42a4.1,4.1,0,1,0-2.43,0v4.84H19.42V22.42a4.1,4.1,0,1,0-2.43,0V34.53a4.1,4.1,0,1,0,2.43,0V29.69h7.84v4.84a4.1,4.1,0,1,0,2.43,0V29.69H40V22.42a4.1,4.1,0,0,0-1.22-8ZM19.46,36.62a1.28,1.28,0,0,1,.09.48,3.14,3.14,0,0,1,0,.45,1.54,1.54,0,0,1-.19.48,4.32,4.32,0,0,1-.38.57c-.17.2-.39.44-.67.72l-.55.56h1.85a.08.08,0,0,1,.07,0,.13.13,0,0,1,.05.07.34.34,0,0,1,0,.12s0,.1,0,.17,0,.13,0,.18a1,1,0,0,1,0,.12.13.13,0,0,1-.05.07l-.06,0H16.75a.15.15,0,0,1-.09-.06.22.22,0,0,1-.05-.12,1.42,1.42,0,0,1,0-.41.75.75,0,0,1,0-.16l.07-.13.12-.14.82-.87a4.58,4.58,0,0,0,.39-.46,3.5,3.5,0,0,0,.23-.38,1.52,1.52,0,0,0,.11-.32,1.31,1.31,0,0,0,0-.27.85.85,0,0,0,0-.23.76.76,0,0,0-.12-.19.57.57,0,0,0-.18-.12.76.76,0,0,0-.27-.05,1.12,1.12,0,0,0-.38.06,1.26,1.26,0,0,0-.29.12l-.21.12a.24.24,0,0,1-.13.06l-.05,0a.15.15,0,0,1,0-.08.39.39,0,0,1,0-.13,1.34,1.34,0,0,1,0-.21v-.14s0-.07,0-.1l0-.07a.19.19,0,0,1,.06-.07l.17-.12.3-.13.39-.1a2.12,2.12,0,0,1,.44-.05,1.76,1.76,0,0,1,.64.1,1.19,1.19,0,0,1,.46.25A1,1,0,0,1,19.46,36.62ZM17,20.75l-.05,0a.1.1,0,0,1-.05-.06l0-.11a1,1,0,0,1,0-.18.81.81,0,0,1,0-.17.21.21,0,0,1,0-.12.09.09,0,0,1,0-.06L17,20h.87V17l-.75.41a.34.34,0,0,1-.14.05.08.08,0,0,1-.08,0,.23.23,0,0,1,0-.11,1.22,1.22,0,0,1,0-.21v-.14a.3.3,0,0,1,0-.1.16.16,0,0,1,0-.07l.07-.05,1-.65,0,0h.72a.09.09,0,0,1,.06,0,.07.07,0,0,1,0,.05V20h.77l.06,0s0,0,.05.06a1,1,0,0,1,0,.12v.17a1,1,0,0,1,0,.18.2.2,0,0,1,0,.11.15.15,0,0,1,0,.06l-.06,0Zm13.1,18.17a.11.11,0,0,1,.1.09.62.62,0,0,1,.05.29.93.93,0,0,1,0,.28c0,.07-.06.1-.11.1h-.41v.85a.09.09,0,0,1,0,.06s0,0-.07,0l-.14,0H29l-.14,0s-.06,0-.07,0a.14.14,0,0,1,0-.06v-.85H26.84a.12.12,0,0,1-.06-.06.4.4,0,0,1,0-.13,1.4,1.4,0,0,1,0-.23c0-.08,0-.14,0-.2a.61.61,0,0,1,0-.15l0-.14.06-.13,1.46-2.57a.1.1,0,0,1,.06-.05l.12,0,.2,0h.61l.21,0a.38.38,0,0,1,.11.05.1.1,0,0,1,0,.07v2.83Zm-.53-18.47a1.69,1.69,0,0,1-.57.28,2.43,2.43,0,0,1-.73.1,2.15,2.15,0,0,1-.45,0,3,3,0,0,1-.37-.08,1.16,1.16,0,0,1-.27-.11L27,20.52,27,20.46a.29.29,0,0,1,0-.09.37.37,0,0,1,0-.12,1,1,0,0,1,0-.18.62.62,0,0,1,0-.24.09.09,0,0,1,.09-.07l.12,0,.23.1a2,2,0,0,0,.32.11,1.86,1.86,0,0,0,.42.05,1.18,1.18,0,0,0,.35-.05.79.79,0,0,0,.26-.13.54.54,0,0,0,.16-.21.6.6,0,0,0,.06-.27.65.65,0,0,0-.07-.29.59.59,0,0,0-.19-.23.81.81,0,0,0-.31-.14,2,2,0,0,0-.45-.05h-.49l-.05-.05a1,1,0,0,1,0-.12.87.87,0,0,1,0-.18.81.81,0,0,1,0-.17.41.41,0,0,1,0-.1s0-.05.05-.05l.07,0h.41a1.46,1.46,0,0,0,.38-.05.69.69,0,0,0,.27-.14.62.62,0,0,0,.17-.22.64.64,0,0,0,.06-.28.85.85,0,0,0,0-.23.57.57,0,0,0-.12-.18.46.46,0,0,0-.2-.13.85.85,0,0,0-.29,0,1.36,1.36,0,0,0-.36.05,2.08,2.08,0,0,0-.3.13l-.22.12a.3.3,0,0,1-.14.06h-.05l0,0a.81.81,0,0,1,0-.11V16.6s0-.08,0-.1l0-.07.05-.07.15-.1a1.32,1.32,0,0,1,.29-.13,1.82,1.82,0,0,1,.39-.11,1.86,1.86,0,0,1,.48,0,2.25,2.25,0,0,1,.61.08,1.23,1.23,0,0,1,.44.23.91.91,0,0,1,.27.37,1.3,1.3,0,0,1,.09.49,1.25,1.25,0,0,1-.05.4,1,1,0,0,1-.16.33,1,1,0,0,1-.26.25,1.11,1.11,0,0,1-.37.15h0a1.31,1.31,0,0,1,.45.13,1,1,0,0,1,.33.24A1.15,1.15,0,0,1,30,19a1.23,1.23,0,0,1,.07.39,1.35,1.35,0,0,1-.14.62A1.2,1.2,0,0,1,29.53,20.45Zm10.68-.55a1.48,1.48,0,0,1-.38.51,1.69,1.69,0,0,1-.58.31,2.47,2.47,0,0,1-.75.11,3.09,3.09,0,0,1-.76-.1,1.15,1.15,0,0,1-.26-.08l-.13-.07-.05-.06s0-.05,0-.08a.37.37,0,0,1,0-.11s0-.1,0-.16,0-.13,0-.18a.35.35,0,0,1,0-.11l0-.06.05,0a.24.24,0,0,1,.12,0,.85.85,0,0,0,.19.09,1.5,1.5,0,0,0,.3.1,2.27,2.27,0,0,0,.41,0,1.6,1.6,0,0,0,.39-.05.71.71,0,0,0,.29-.14.55.55,0,0,0,.18-.24.71.71,0,0,0,.07-.34.83.83,0,0,0-.06-.32.53.53,0,0,0-.17-.23.84.84,0,0,0-.3-.14,1.92,1.92,0,0,0-.45,0,2.24,2.24,0,0,0-.38,0l-.32,0a.19.19,0,0,1-.15-.05.27.27,0,0,1,0-.2v-2a.28.28,0,0,1,.06-.2c0-.05.09-.07.18-.07h2.22l.06,0a.18.18,0,0,1,.05.07l0,.13c0,.05,0,.11,0,.19a1.05,1.05,0,0,1,0,.31c0,.07-.06.1-.11.1H38.24v1h.52a2.31,2.31,0,0,1,.67.09,1.48,1.48,0,0,1,.5.26,1.19,1.19,0,0,1,.3.43,1.55,1.55,0,0,1,.11.59A1.62,1.62,0,0,1,40.21,19.9Z"/><path class="cls-1" d="M28.47,0A28.47,28.47,0,1,0,57,28.47,28.47,28.47,0,0,0,28.47,0Zm18,40.75a5.67,5.67,0,0,1-5.67,5.67H16.19a5.66,5.66,0,0,1-5.66-5.67V16.19a5.66,5.66,0,0,1,5.66-5.67H40.75a5.67,5.67,0,0,1,5.67,5.67Z"/><polygon class="cls-1" points="28.72 36.76 28.73 36.76 28.73 38.92 27.49 38.92 28.72 36.76"/><path class="cls-1" d="M38.75,14.41a4.1,4.1,0,0,0-1.21,8v4.84H29.69V22.42a4.1,4.1,0,1,0-2.43,0v4.84H19.42V22.42a4.1,4.1,0,1,0-2.43,0V34.53a4.1,4.1,0,1,0,2.43,0V29.69h7.84v4.84a4.1,4.1,0,1,0,2.43,0V29.69H40V22.42a4.1,4.1,0,0,0-1.22-8ZM19.46,36.62a1.28,1.28,0,0,1,.09.48,3.14,3.14,0,0,1,0,.45,1.54,1.54,0,0,1-.19.48,4.32,4.32,0,0,1-.38.57c-.17.2-.39.44-.67.72l-.55.56h1.85a.08.08,0,0,1,.07,0,.13.13,0,0,1,.05.07.34.34,0,0,1,0,.12s0,.1,0,.17,0,.13,0,.18a1,1,0,0,1,0,.12.13.13,0,0,1-.05.07l-.06,0H16.75a.15.15,0,0,1-.09-.06.22.22,0,0,1-.05-.12,1.42,1.42,0,0,1,0-.41.75.75,0,0,1,0-.16l.07-.13.12-.14.82-.87a4.58,4.58,0,0,0,.39-.46,3.5,3.5,0,0,0,.23-.38,1.52,1.52,0,0,0,.11-.32,1.31,1.31,0,0,0,0-.27.85.85,0,0,0,0-.23.76.76,0,0,0-.12-.19.57.57,0,0,0-.18-.12.76.76,0,0,0-.27-.05,1.12,1.12,0,0,0-.38.06,1.26,1.26,0,0,0-.29.12l-.21.12a.24.24,0,0,1-.13.06l-.05,0a.15.15,0,0,1,0-.08.39.39,0,0,1,0-.13,1.34,1.34,0,0,1,0-.21v-.14s0-.07,0-.1l0-.07a.19.19,0,0,1,.06-.07l.17-.12.3-.13.39-.1a2.12,2.12,0,0,1,.44-.05,1.76,1.76,0,0,1,.64.1,1.19,1.19,0,0,1,.46.25A1,1,0,0,1,19.46,36.62ZM17,20.75l-.05,0a.1.1,0,0,1-.05-.06l0-.11a1,1,0,0,1,0-.18.81.81,0,0,1,0-.17.21.21,0,0,1,0-.12.09.09,0,0,1,0-.06L17,20h.87V17l-.75.41a.34.34,0,0,1-.14.05.08.08,0,0,1-.08,0,.23.23,0,0,1,0-.11,1.22,1.22,0,0,1,0-.21v-.14a.3.3,0,0,1,0-.1.16.16,0,0,1,0-.07l.07-.05,1-.65,0,0h.72a.09.09,0,0,1,.06,0,.07.07,0,0,1,0,.05V20h.77l.06,0s0,0,.05.06a1,1,0,0,1,0,.12v.17a1,1,0,0,1,0,.18.2.2,0,0,1,0,.11.15.15,0,0,1,0,.06l-.06,0Zm13.1,18.17a.11.11,0,0,1,.1.09.62.62,0,0,1,.05.29.93.93,0,0,1,0,.28c0,.07-.06.1-.11.1h-.41v.85a.09.09,0,0,1,0,.06s0,0-.07,0l-.14,0H29l-.14,0s-.06,0-.07,0a.14.14,0,0,1,0-.06v-.85H26.84a.12.12,0,0,1-.06-.06.4.4,0,0,1,0-.13,1.4,1.4,0,0,1,0-.23c0-.08,0-.14,0-.2a.61.61,0,0,1,0-.15l0-.14.06-.13,1.46-2.57a.1.1,0,0,1,.06-.05l.12,0,.2,0h.61l.21,0a.38.38,0,0,1,.11.05.1.1,0,0,1,0,.07v2.83Zm-.53-18.47a1.69,1.69,0,0,1-.57.28,2.43,2.43,0,0,1-.73.1,2.15,2.15,0,0,1-.45,0,3,3,0,0,1-.37-.08,1.16,1.16,0,0,1-.27-.11L27,20.52,27,20.46a.29.29,0,0,1,0-.09.37.37,0,0,1,0-.12,1,1,0,0,1,0-.18.62.62,0,0,1,0-.24.09.09,0,0,1,.09-.07l.12,0,.23.1a2,2,0,0,0,.32.11,1.86,1.86,0,0,0,.42.05,1.18,1.18,0,0,0,.35-.05.79.79,0,0,0,.26-.13.54.54,0,0,0,.16-.21.6.6,0,0,0,.06-.27.65.65,0,0,0-.07-.29.59.59,0,0,0-.19-.23.81.81,0,0,0-.31-.14,2,2,0,0,0-.45-.05h-.49l-.05-.05a1,1,0,0,1,0-.12.87.87,0,0,1,0-.18.81.81,0,0,1,0-.17.41.41,0,0,1,0-.1s0-.05.05-.05l.07,0h.41a1.46,1.46,0,0,0,.38-.05.69.69,0,0,0,.27-.14.62.62,0,0,0,.17-.22.64.64,0,0,0,.06-.28.85.85,0,0,0,0-.23.57.57,0,0,0-.12-.18.46.46,0,0,0-.2-.13.85.85,0,0,0-.29,0,1.36,1.36,0,0,0-.36.05,2.08,2.08,0,0,0-.3.13l-.22.12a.3.3,0,0,1-.14.06h-.05l0,0a.81.81,0,0,1,0-.11V16.6s0-.08,0-.1l0-.07.05-.07.15-.1a1.32,1.32,0,0,1,.29-.13,1.82,1.82,0,0,1,.39-.11,1.86,1.86,0,0,1,.48,0,2.25,2.25,0,0,1,.61.08,1.23,1.23,0,0,1,.44.23.91.91,0,0,1,.27.37,1.3,1.3,0,0,1,.09.49,1.25,1.25,0,0,1-.05.4,1,1,0,0,1-.16.33,1,1,0,0,1-.26.25,1.11,1.11,0,0,1-.37.15h0a1.31,1.31,0,0,1,.45.13,1,1,0,0,1,.33.24A1.15,1.15,0,0,1,30,19a1.23,1.23,0,0,1,.07.39,1.35,1.35,0,0,1-.14.62A1.2,1.2,0,0,1,29.53,20.45Zm10.68-.55a1.48,1.48,0,0,1-.38.51,1.69,1.69,0,0,1-.58.31,2.47,2.47,0,0,1-.75.11,3.09,3.09,0,0,1-.76-.1,1.15,1.15,0,0,1-.26-.08l-.13-.07-.05-.06s0-.05,0-.08a.37.37,0,0,1,0-.11s0-.1,0-.16,0-.13,0-.18a.35.35,0,0,1,0-.11l0-.06.05,0a.24.24,0,0,1,.12,0,.85.85,0,0,0,.19.09,1.5,1.5,0,0,0,.3.1,2.27,2.27,0,0,0,.41,0,1.6,1.6,0,0,0,.39-.05.71.71,0,0,0,.29-.14.55.55,0,0,0,.18-.24.71.71,0,0,0,.07-.34.83.83,0,0,0-.06-.32.53.53,0,0,0-.17-.23.84.84,0,0,0-.3-.14,1.92,1.92,0,0,0-.45,0,2.24,2.24,0,0,0-.38,0l-.32,0a.19.19,0,0,1-.15-.05.27.27,0,0,1,0-.2v-2a.28.28,0,0,1,.06-.2c0-.05.09-.07.18-.07h2.22l.06,0a.18.18,0,0,1,.05.07l0,.13c0,.05,0,.11,0,.19a1.05,1.05,0,0,1,0,.31c0,.07-.06.1-.11.1H38.24v1h.52a2.31,2.31,0,0,1,.67.09,1.48,1.48,0,0,1,.5.26,1.19,1.19,0,0,1,.3.43,1.55,1.55,0,0,1,.11.59A1.62,1.62,0,0,1,40.21,19.9Z"/><polygon class="cls-1" points="28.72 36.76 28.73 36.76 28.73 38.92 27.49 38.92 28.72 36.76"/><path class="cls-1" d="M38.75,14.41a4.1,4.1,0,0,0-1.21,8v4.84H29.69V22.42a4.1,4.1,0,1,0-2.43,0v4.84H19.42V22.42a4.1,4.1,0,1,0-2.43,0V34.53a4.1,4.1,0,1,0,2.43,0V29.69h7.84v4.84a4.1,4.1,0,1,0,2.43,0V29.69H40V22.42a4.1,4.1,0,0,0-1.22-8ZM19.46,36.62a1.28,1.28,0,0,1,.09.48,3.14,3.14,0,0,1,0,.45,1.54,1.54,0,0,1-.19.48,4.32,4.32,0,0,1-.38.57c-.17.2-.39.44-.67.72l-.55.56h1.85a.08.08,0,0,1,.07,0,.13.13,0,0,1,.05.07.34.34,0,0,1,0,.12s0,.1,0,.17,0,.13,0,.18a1,1,0,0,1,0,.12.13.13,0,0,1-.05.07l-.06,0H16.75a.15.15,0,0,1-.09-.06.22.22,0,0,1-.05-.12,1.42,1.42,0,0,1,0-.41.75.75,0,0,1,0-.16l.07-.13.12-.14.82-.87a4.58,4.58,0,0,0,.39-.46,3.5,3.5,0,0,0,.23-.38,1.52,1.52,0,0,0,.11-.32,1.31,1.31,0,0,0,0-.27.85.85,0,0,0,0-.23.76.76,0,0,0-.12-.19.57.57,0,0,0-.18-.12.76.76,0,0,0-.27-.05,1.12,1.12,0,0,0-.38.06,1.26,1.26,0,0,0-.29.12l-.21.12a.24.24,0,0,1-.13.06l-.05,0a.15.15,0,0,1,0-.08.39.39,0,0,1,0-.13,1.34,1.34,0,0,1,0-.21v-.14s0-.07,0-.1l0-.07a.19.19,0,0,1,.06-.07l.17-.12.3-.13.39-.1a2.12,2.12,0,0,1,.44-.05,1.76,1.76,0,0,1,.64.1,1.19,1.19,0,0,1,.46.25A1,1,0,0,1,19.46,36.62ZM17,20.75l-.05,0a.1.1,0,0,1-.05-.06l0-.11a1,1,0,0,1,0-.18.81.81,0,0,1,0-.17.21.21,0,0,1,0-.12.09.09,0,0,1,0-.06L17,20h.87V17l-.75.41a.34.34,0,0,1-.14.05.08.08,0,0,1-.08,0,.23.23,0,0,1,0-.11,1.22,1.22,0,0,1,0-.21v-.14a.3.3,0,0,1,0-.1.16.16,0,0,1,0-.07l.07-.05,1-.65,0,0h.72a.09.09,0,0,1,.06,0,.07.07,0,0,1,0,.05V20h.77l.06,0s0,0,.05.06a1,1,0,0,1,0,.12v.17a1,1,0,0,1,0,.18.2.2,0,0,1,0,.11.15.15,0,0,1,0,.06l-.06,0Zm13.1,18.17a.11.11,0,0,1,.1.09.62.62,0,0,1,.05.29.93.93,0,0,1,0,.28c0,.07-.06.1-.11.1h-.41v.85a.09.09,0,0,1,0,.06s0,0-.07,0l-.14,0H29l-.14,0s-.06,0-.07,0a.14.14,0,0,1,0-.06v-.85H26.84a.12.12,0,0,1-.06-.06.4.4,0,0,1,0-.13,1.4,1.4,0,0,1,0-.23c0-.08,0-.14,0-.2a.61.61,0,0,1,0-.15l0-.14.06-.13,1.46-2.57a.1.1,0,0,1,.06-.05l.12,0,.2,0h.61l.21,0a.38.38,0,0,1,.11.05.1.1,0,0,1,0,.07v2.83Zm-.53-18.47a1.69,1.69,0,0,1-.57.28,2.43,2.43,0,0,1-.73.1,2.15,2.15,0,0,1-.45,0,3,3,0,0,1-.37-.08,1.16,1.16,0,0,1-.27-.11L27,20.52,27,20.46a.29.29,0,0,1,0-.09.37.37,0,0,1,0-.12,1,1,0,0,1,0-.18.62.62,0,0,1,0-.24.09.09,0,0,1,.09-.07l.12,0,.23.1a2,2,0,0,0,.32.11,1.86,1.86,0,0,0,.42.05,1.18,1.18,0,0,0,.35-.05.79.79,0,0,0,.26-.13.54.54,0,0,0,.16-.21.6.6,0,0,0,.06-.27.65.65,0,0,0-.07-.29.59.59,0,0,0-.19-.23.81.81,0,0,0-.31-.14,2,2,0,0,0-.45-.05h-.49l-.05-.05a1,1,0,0,1,0-.12.87.87,0,0,1,0-.18.81.81,0,0,1,0-.17.41.41,0,0,1,0-.1s0-.05.05-.05l.07,0h.41a1.46,1.46,0,0,0,.38-.05.69.69,0,0,0,.27-.14.62.62,0,0,0,.17-.22.64.64,0,0,0,.06-.28.85.85,0,0,0,0-.23.57.57,0,0,0-.12-.18.46.46,0,0,0-.2-.13.85.85,0,0,0-.29,0,1.36,1.36,0,0,0-.36.05,2.08,2.08,0,0,0-.3.13l-.22.12a.3.3,0,0,1-.14.06h-.05l0,0a.81.81,0,0,1,0-.11V16.6s0-.08,0-.1l0-.07.05-.07.15-.1a1.32,1.32,0,0,1,.29-.13,1.82,1.82,0,0,1,.39-.11,1.86,1.86,0,0,1,.48,0,2.25,2.25,0,0,1,.61.08,1.23,1.23,0,0,1,.44.23.91.91,0,0,1,.27.37,1.3,1.3,0,0,1,.09.49,1.25,1.25,0,0,1-.05.4,1,1,0,0,1-.16.33,1,1,0,0,1-.26.25,1.11,1.11,0,0,1-.37.15h0a1.31,1.31,0,0,1,.45.13,1,1,0,0,1,.33.24A1.15,1.15,0,0,1,30,19a1.23,1.23,0,0,1,.07.39,1.35,1.35,0,0,1-.14.62A1.2,1.2,0,0,1,29.53,20.45Zm10.68-.55a1.48,1.48,0,0,1-.38.51,1.69,1.69,0,0,1-.58.31,2.47,2.47,0,0,1-.75.11,3.09,3.09,0,0,1-.76-.1,1.15,1.15,0,0,1-.26-.08l-.13-.07-.05-.06s0-.05,0-.08a.37.37,0,0,1,0-.11s0-.1,0-.16,0-.13,0-.18a.35.35,0,0,1,0-.11l0-.06.05,0a.24.24,0,0,1,.12,0,.85.85,0,0,0,.19.09,1.5,1.5,0,0,0,.3.1,2.27,2.27,0,0,0,.41,0,1.6,1.6,0,0,0,.39-.05.71.71,0,0,0,.29-.14.55.55,0,0,0,.18-.24.71.71,0,0,0,.07-.34.83.83,0,0,0-.06-.32.53.53,0,0,0-.17-.23.84.84,0,0,0-.3-.14,1.92,1.92,0,0,0-.45,0,2.24,2.24,0,0,0-.38,0l-.32,0a.19.19,0,0,1-.15-.05.27.27,0,0,1,0-.2v-2a.28.28,0,0,1,.06-.2c0-.05.09-.07.18-.07h2.22l.06,0a.18.18,0,0,1,.05.07l0,.13c0,.05,0,.11,0,.19a1.05,1.05,0,0,1,0,.31c0,.07-.06.1-.11.1H38.24v1h.52a2.31,2.31,0,0,1,.67.09,1.48,1.48,0,0,1,.5.26,1.19,1.19,0,0,1,.3.43,1.55,1.55,0,0,1,.11.59A1.62,1.62,0,0,1,40.21,19.9Z"/><path class="cls-1" d="M41.16,40.61a2.16,2.16,0,0,0-.08-.24l-.47-1.08c0-.13-.11-.25-.16-.35l-.18-.27a1,1,0,0,0-.21-.21,1.09,1.09,0,0,0-.23-.14,2.17,2.17,0,0,0,.46-.22,1.22,1.22,0,0,0,.33-.31,1.39,1.39,0,0,0,.21-.4,2,2,0,0,0,.07-.5,1.47,1.47,0,0,0-.1-.58,1.33,1.33,0,0,0-.28-.44,1.77,1.77,0,0,0-.45-.3,2.2,2.2,0,0,0-.6-.16l-.25,0H37.44a.41.41,0,0,0-.24.08.37.37,0,0,0-.09.27v5a.14.14,0,0,0,0,.07.2.2,0,0,0,.09.06l.18,0,.26,0,.28,0,.17,0a.2.2,0,0,0,.09-.06.08.08,0,0,0,0-.07V38.63h.35a.8.8,0,0,1,.32,0,.78.78,0,0,1,.24.16,1.27,1.27,0,0,1,.18.27c.06.11.12.23.18.37L40,40.71l0,.09.09.06.17,0h.62l.18,0a.23.23,0,0,0,.09-.06.15.15,0,0,0,0-.07A.74.74,0,0,0,41.16,40.61Zm-1.48-3.29a.74.74,0,0,1-.17.25.86.86,0,0,1-.3.16,1.33,1.33,0,0,1-.42.06h-.57V36.23H39l.2,0a.69.69,0,0,1,.4.26.85.85,0,0,1,.12.46A.79.79,0,0,1,39.68,37.32Z"/></g></g></svg>