<?xml version="1.0" encoding="utf-8"?>
<!-- Generator: Adobe Illustrator 24.1.1, SVG Export Plug-In . SVG Version: 6.00 Build 0)  -->
<svg version="1.1" id="Capa_1" xmlns="http://www.w3.org/2000/svg" xmlns:xlink="http://www.w3.org/1999/xlink" x="0px" y="0px"
	 viewBox="0 0 512 512" style="enable-background:new 0 0 512 512;" xml:space="preserve">
<style type="text/css">
	.st0{fill:#007BFF;}
</style>
<g>
	<path class="st0" d="M87.3,173h61.5c3.2,0,5.8-2.6,5.8-5.8c0-3.2-2.6-5.8-5.8-5.8H87.3c-3.2,0-5.8,2.6-5.8,5.8
		C81.5,170.4,84.1,173,87.3,173z"/>
	<path class="st0" d="M146.7,201.1h-24.3c-3.2,0-5.8,2.6-5.8,5.8c0,3.2,2.6,5.8,5.8,5.8h24.3c3.2,0,5.8-2.6,5.8-5.8
		C152.5,203.7,149.9,201.1,146.7,201.1z"/>
	<path class="st0" d="M62.9,241.5h59.4c3.2,0,5.8-2.6,5.8-5.8c0-3.2-2.6-5.8-5.8-5.8H62.9c-3.2,0-5.8,2.6-5.8,5.8
		C57.1,238.9,59.7,241.5,62.9,241.5z"/>
	<path class="st0" d="M154.6,344.8c0-3.2-2.6-5.8-5.8-5.8H87.3c-3.2,0-5.8,2.6-5.8,5.8c0,3.2,2.6,5.8,5.8,5.8h61.5
		C152,350.6,154.6,348,154.6,344.8z"/>
	<path class="st0" d="M146.7,299.3h-24.3c-3.2,0-5.8,2.6-5.8,5.8c0,3.2,2.6,5.8,5.8,5.8h24.3c3.2,0,5.8-2.6,5.8-5.8
		C152.5,301.9,149.9,299.3,146.7,299.3z"/>
	<path class="st0" d="M128.2,276.3c0-3.2-2.6-5.8-5.8-5.8H62.9c-3.2,0-5.8,2.6-5.8,5.8c0,3.2,2.6,5.8,5.8,5.8h59.4
		C125.6,282.2,128.2,279.6,128.2,276.3z"/>
	<path class="st0" d="M305.4,185.9c3.2,0,5.8-2.6,5.8-5.8v-8.9c0-3.2-2.6-5.8-5.8-5.8c-3.2,0-5.8,2.6-5.8,5.8v8.9
		C299.5,183.3,302.1,185.9,305.4,185.9z"/>
	<path class="st0" d="M369.4,191.9c-2.3-2.3-6-2.3-8.2,0l-6.3,6.3c-2.3,2.3-2.3,6,0,8.2c2.3,2.3,6,2.3,8.2,0l6.3-6.3
		C371.7,197.9,371.7,194.2,369.4,191.9z"/>
	<path class="st0" d="M381.2,250.2c-3.2,0-5.8,2.6-5.8,5.8c0,3.2,2.6,5.8,5.8,5.8h8.9c3.2,0,5.8-2.6,5.8-5.8c0-3.2-2.6-5.8-5.8-5.8
		H381.2z"/>
	<path class="st0" d="M363.1,305.5c-2.3-2.3-6-2.3-8.2,0c-2.3,2.3-2.3,6,0,8.2l6.3,6.3c2.3,2.3,6,2.3,8.2,0c2.3-2.3,2.3-6,0-8.2
		L363.1,305.5z"/>
	<path class="st0" d="M299.5,331.9v8.9c0,3.2,2.6,5.8,5.8,5.8c3.2,0,5.8-2.6,5.8-5.8v-8.9c0-3.2-2.6-5.8-5.8-5.8
		C302.1,326.1,299.5,328.7,299.5,331.9z"/>
	<path class="st0" d="M247.6,305.5l-6.3,6.3c-2.3,2.3-2.3,6,0,8.2c2.3,2.3,6,2.3,8.2,0l6.3-6.3c2.3-2.3,2.3-6,0-8.2
		C253.5,303.3,249.9,303.3,247.6,305.5z"/>
	<path class="st0" d="M220.6,250.2c-3.2,0-5.8,2.6-5.8,5.8c0,3.2,2.6,5.8,5.8,5.8h8.9c3.2,0,5.8-2.6,5.8-5.8c0-3.2-2.6-5.8-5.8-5.8
		H220.6z"/>
	<path class="st0" d="M255.8,198.2l-6.3-6.3c-2.3-2.3-6-2.3-8.2,0c-2.3,2.3-2.3,6,0,8.2l6.3,6.3c2.3,2.3,6,2.3,8.2,0
		C258.1,204.2,258.1,200.5,255.8,198.2z"/>
	<path class="st0" d="M336.7,256c0-3.2-2.6-5.8-5.8-5.8h-19.7v-43.3c0-3.2-2.6-5.8-5.8-5.8c-3.2,0-5.8,2.6-5.8,5.8V256
		c0,3.2,2.6,5.8,5.8,5.8h25.5C334.1,261.8,336.7,259.2,336.7,256z"/>
	<path class="st0" d="M415.8,255c3.2-0.2,5.7-3,5.5-6.2c-3.7-61.1-54.6-109-115.9-109c-64.1,0-116.2,52.1-116.2,116.2
		c0,64.1,52.1,116.2,116.2,116.2c57.4,0,106.4-42,114.9-98.8c0.5-3.2-1.7-6.1-4.9-6.6c-3.2-0.5-6.1,1.7-6.6,4.9
		c-7.7,51-51.7,88.9-103.4,88.9c-57.6,0-104.5-46.9-104.5-104.5s46.9-104.5,104.5-104.5c55.2,0,101,43.1,104.3,98.1
		C409.9,252.8,412.6,255.2,415.8,255L415.8,255z"/>
	<path class="st0" d="M305.4,106.5c-20.5,0-40.6,4.3-59.1,12.2H143.5c-3.2,0-5.8,2.6-5.8,5.8c0,3.2,2.6,5.8,5.8,5.8h80.9
		c-10.9,7-21,15.5-29.9,25.3c-2.2,2.4-2,6.1,0.4,8.2c2.4,2.2,6.1,2,8.2-0.4c26.1-28.8,63.4-45.4,102.2-45.4
		c76,0,137.9,61.9,137.9,137.9c0,76-61.9,137.9-137.9,137.9c-76,0-137.9-61.9-137.9-137.9c0-26.6,7.6-52.5,22-74.7
		c1.7-2.7,1-6.3-1.7-8.1c-2.7-1.7-6.3-1-8.1,1.7c-15.6,24.2-23.9,52.2-23.9,81.1c0,52.6,27.4,99,68.6,125.7h-80.9
		c-3.2,0-5.8,2.6-5.8,5.8s2.6,5.8,5.8,5.8h102.7c18.1,7.8,38.1,12.2,59.1,12.2c82.5,0,149.5-67.1,149.5-149.5
		S387.8,106.5,305.4,106.5z"/>
</g>
</svg>
