<?xml version="1.0" encoding="utf-8"?>
<!-- Generator: Adobe Illustrator 24.1.1, SVG Export Plug-In . SVG Version: 6.00 Build 0)  -->
<svg version="1.1" id="Camada_1" xmlns="http://www.w3.org/2000/svg" xmlns:xlink="http://www.w3.org/1999/xlink" x="0px" y="0px"
	 viewBox="0 0 71.5 58.8" style="enable-background:new 0 0 71.5 58.8;" xml:space="preserve">
<style type="text/css">
	.st0{fill:#007BFF;}
</style>
<path class="st0" d="M65.6,4.4H5.9c-1,0-1.8,0.9-1.9,2.1v42.9c0,1.2,0.9,2.1,1.9,2.1h59.6c1,0.1,1.8-0.9,1.9-2.1c0,0,0,0,0,0V6.5
	C67.4,5.3,66.5,4.4,65.6,4.4z M64.7,47.4h-58V8.3h58V47.4z"/>
<path class="st0" d="M71.5,51.2c0.1,1.9-1.4,3.5-3.2,3.5h-65c-1.9-0.1-3.3-1.7-3.3-3.5c0,0,0,0,0,0H71.5z"/>
<g>
	<path class="st0" d="M45.7,26.3c-1.4-0.4-2.8-0.6-4.2-0.6h-0.9v0.1c0.2,1.2,0.3,2.5,0.3,3.7v0.1h0.1c4.2-0.3,8.5-0.6,8.8-0.7
		c0.1,0,0.1-0.1,0.1-0.2C50,28.3,46.9,26.6,45.7,26.3z M41.2,29.4c0-1.1-0.1-2.3-0.2-3.4h0.6c1.4,0,2.8,0.2,4.1,0.6
		c1.4,0.5,2.8,1.3,4,2.2C49.1,28.8,45.5,29.1,41.2,29.4z M45.7,26.3c-1.4-0.4-2.8-0.6-4.2-0.6h-0.9v0.1c0.2,1.2,0.3,2.5,0.3,3.7v0.1
		h0.1c4.2-0.3,8.5-0.6,8.8-0.7c0.1,0,0.1-0.1,0.1-0.2C50,28.3,46.9,26.6,45.7,26.3z M41.2,29.4c0-1.1-0.1-2.3-0.2-3.4h0.6
		c1.4,0,2.8,0.2,4.1,0.6c1.4,0.5,2.8,1.3,4,2.2C49.1,28.8,45.5,29.1,41.2,29.4z M45.7,26.3c-1.4-0.4-2.8-0.6-4.2-0.6h-0.9v0.1
		c0.2,1.2,0.3,2.5,0.3,3.7v0.1h0.1c4.2-0.3,8.5-0.6,8.8-0.7c0.1,0,0.1-0.1,0.1-0.2C50,28.3,46.9,26.6,45.7,26.3z M41.2,29.4
		c0-1.1-0.1-2.3-0.2-3.4h0.6c1.4,0,2.8,0.2,4.1,0.6c1.4,0.5,2.8,1.3,4,2.2C49.1,28.8,45.5,29.1,41.2,29.4z M45.7,26.3
		c-1.4-0.4-2.8-0.6-4.2-0.6h-0.9v0.1c0.2,1.2,0.3,2.5,0.3,3.7v0.1h0.1c4.2-0.3,8.5-0.6,8.8-0.7c0.1,0,0.1-0.1,0.1-0.2
		C50,28.3,46.9,26.6,45.7,26.3z M41.2,29.4c0-1.1-0.1-2.3-0.2-3.4h0.6c1.4,0,2.8,0.2,4.1,0.6c1.4,0.5,2.8,1.3,4,2.2
		C49.1,28.8,45.5,29.1,41.2,29.4z M45.7,26.3c-1.4-0.4-2.8-0.6-4.2-0.6h-0.9v0.1c0.2,1.2,0.3,2.5,0.3,3.7v0.1h0.1
		c4.2-0.3,8.5-0.6,8.8-0.7c0.1,0,0.1-0.1,0.1-0.2C50,28.3,46.9,26.6,45.7,26.3z M41.2,29.4c0-1.1-0.1-2.3-0.2-3.4h0.6
		c1.4,0,2.8,0.2,4.1,0.6c1.4,0.5,2.8,1.3,4,2.2C49.1,28.8,45.5,29.1,41.2,29.4z M21.6,32.8l-0.1-0.2c-2.2,0.5-3.6,2.7-3.2,5h-1.9
		c-0.4,0-0.7,0-1.1,0h-0.6c-0.2,0-0.4-0.1-0.6-0.2L14,37.3l0,0v-0.1c0-0.1,0-0.2,0-0.3c0,0,0,0,0-0.1l0,0l0,0l0,0l0-0.3l0,0l0,0
		c0,0,0-0.1,0-0.1l0,0l0,0c0-0.1,0.1-0.1,0.1-0.2c0-0.1,0-0.1,0-0.2c0-0.3,0-0.6,0-0.9v-0.7c0-0.1,0-0.1,0-0.2v-0.1c0,0,0-0.1,0-0.1
		c0-0.1,0-0.1,0-0.2c0-0.1,0-0.1,0-0.2c0,0,0,0,0-0.1v-0.1v-0.3c0.1-0.6,0.5-1.1,0.9-1.5l0.3-0.4c0.4-0.6,3.1-1,5.6-1.2L20.8,30
		c-2.7,0.3-5.3,0.6-5.7,1.3c-0.1,0.1-0.2,0.3-0.3,0.4c-0.4,0.5-0.6,1-0.7,1.6c0,0.1,0,0.2,0,0.3v0.1c0,0,0,0.1,0,0.1
		c0,0.1,0,0.1,0,0.2c0,0.1,0,0.1,0,0.2c0,0,0,0.1,0,0.1v0.1c0,0.1-0.1,0.1-0.1,0.2v0.5c0,0.3,0,0.6,0,0.9c0,0,0,0.1,0,0.1
		c0,0,0,0.1-0.1,0.1c0,0,0,0,0,0v0.1l0,0l0,0l-0.1,0.1c0,0,0,0,0,0.1v0.1c0,0.1,0,0.3,0,0.4c0,0,0,0.1,0.1,0.1l0,0
		c0,0.1,0.1,0.1,0.2,0.2c0.2,0.2,0.5,0.2,0.8,0.2h0.6c0.6,0,0.6,0,1.1,0h2.2v-0.2c-0.1-0.3-0.1-0.6-0.1-0.9
		C18.7,34.8,19.9,33.3,21.6,32.8z M60,33.2c0-0.1,0-0.1-0.1-0.2v-0.1c0,0,0-0.1-0.1-0.2c0,0,0,0,0-0.1l-0.1-0.1v0l-0.1-0.1
		c-0.1,0-0.1-0.1-0.1-0.2v-0.1c0-0.1,0-0.1,0-0.2c0-0.1,0-0.1,0-0.2c0,0,0,0,0-0.1l0,0c0-0.1,0-0.2-0.1-0.3c0,0,0,0,0,0l-0.1-0.6
		c-0.1-0.1-0.1-0.2-0.2-0.3v-0.1c0,0,0-0.1,0-0.1C59.1,30,59,29.7,59,29.6v-0.1l0,0v-0.1c-0.1-0.1-0.3-0.2-1.3-0.3
		c-1-0.1-2-0.2-3-0.5L54,28.3c-4.2-1.9-8.7-2.9-13.3-3h-1c-4,0-4.2,0-5.1,0.3c-2.2,0.9-4.3,1.9-6.4,3c-0.8,0.4-1.4,0.7-1.6,0.8
		c-0.8,0.2-1.6,0.4-2.4,0.4V30c0.8-0.1,1.7-0.2,2.5-0.5c0.2-0.1,0.8-0.4,1.6-0.8c2.1-1.1,4.2-2.1,6.3-3c0.8-0.3,1.1-0.3,5-0.3h0.6
		c0.1,0,0.3,0,0.4,0c4.6,0.1,9,1.1,13.2,3l0.7,0.3c0.9,0.3,1.9,0.5,2.9,0.6c0.4,0,0.7,0.1,1.1,0.2l0,0c0,0,0,0.1,0,0.1
		c0.1,0.2,0.2,0.4,0.2,0.7c0,0,0,0.1,0,0.1v0.1c0,0.1,0,0.2,0.1,0.2l0.1,0.5c0,0,0,0.1,0,0.1v0.1c0,0.1,0,0.1,0,0.2c0,0,0,0.1,0,0.1
		c0,0.1,0,0.1,0,0.2c0,0.1,0,0.2,0,0.3l0,0c0,0.1,0.1,0.2,0.2,0.3l0,0l0,0l0,0c0,0,0,0.1,0,0.1l0,0c0,0.1,0.1,0.1,0.1,0.2l0,0
		c0,0.1,0,0.1,0.1,0.2c0.2,0.9,0.1,1.9,0,2.8l0,0c-0.1,0.1-0.3,0.1-0.4,0.2l-0.2,0.1c0,0,0,0-0.1,0l0,0l-0.1,0.1l-0.1,0.1l-0.1,0.1
		l-0.2,0.1l-0.2,0.1c-0.3,0.1-0.6,0.2-0.9,0.3H57h-0.1l0,0h-0.1c-0.4,0.1-0.8,0.1-1.1,0.2c0.1-0.1,0.3-0.3,0.4-0.4
		c0-2.4-1.9-4.3-4.3-4.3c-2.4,0-4.3,1.9-4.3,4.3c0,0.3,0,0.6,0.1,0.9H26.7c0-0.3,0.1-0.5,0.1-0.8c0-1.8-1.1-3.4-2.8-4V33
		c1.6,0.6,2.6,2.1,2.6,3.8c0,0.3,0,0.6-0.1,0.9v0.1h21.3v-0.1c-0.1-0.3-0.1-0.6-0.1-0.9c-0.1-2.2,1.6-4.1,3.9-4.3
		c2.2-0.1,4.1,1.6,4.3,3.9c0,0.1,0,0.3,0,0.4c0,0.3,0,0.6-0.1,0.9v0.2h0.2c0.4-0.1,0.9-0.2,1.3-0.3h0.1h0.1h0.1
		c0.3-0.1,0.6-0.2,0.9-0.3l0.2-0.1l0.3-0.1c0,0,0.1-0.1,0.1-0.1l0.1-0.1l0.1-0.1c0,0,0.1,0,0.1-0.1l0.2-0.1c0.1-0.1,0.2-0.1,0.3-0.2
		h0.1l0,0c0.1-0.1,0.1-0.1,0.2-0.2C60.2,35.2,60.2,34.1,60,33.2z"/>
	<path class="st0" d="M35,29.7c0.9,0,1.8-0.1,2.8-0.1L35,29.7z M40,25.9L40,25.9z"/>
	<path class="st0" d="M40.8,28.6c0-0.2,0-0.4,0-0.7c0-0.6-0.1-1.3-0.2-2v-0.1h-0.1h-2c-1,0-2,0-3,0.1C35,26,34.5,26.2,34,26.4
		l-0.7,0.3c-2,0.9-4.8,2.2-5.4,2.9c0,0.1-0.1,0.1,0,0.2c0,0.1,0,0.1,0.1,0.1h0.1h0.1c0.5,0.1,1.1,0.2,1.6,0.1h0.9h0.2
		c2.7,0,6.8-0.2,9.8-0.4h0.1v-0.1C40.8,29.2,40.8,28.9,40.8,28.6z M30.6,29.5c-0.1-0.1-0.3-0.1-0.4,0c-0.1,0-0.1,0.1-0.1,0.2
		c0,0.1,0.1,0.2,0.2,0.3h-0.6c-0.5,0-0.9,0-1.4-0.1c0,0,0,0,0.1-0.1c0.4-0.4,0.9-0.7,1.4-1l0.4-0.2c0.2-0.1,0.3-0.1,0.5-0.1
		c0,0,0.3,0,0.3,0.2c0,0.3,0,0.6-0.1,0.9c0,0.2-0.1,0.2-0.1,0.2C30.7,29.6,30.6,29.5,30.6,29.5L30.6,29.5z M39.4,29.5h-0.6l-0.9,0
		c-1,0.1-2,0.1-2.8,0.1h-0.6h-0.7h-0.9h-2l0,0h0.1c0.1,0,0.3,0,0.4-0.4c0-0.3,0.1-0.6,0.1-0.9c0-0.3-0.2-0.4-0.5-0.4l0.8-0.4
		l0.4-0.2l0.6-0.3c0.2-0.1,0.3-0.1,0.5-0.2c0.8-0.4,1.5-0.6,2-0.8l0.2,0l0.2-0.1h0.1h0.3l0.8,0c0.5,0,1.1,0,1.9,0h1.8
		c0.2,1.2,0.2,2.3,0.2,3.5L39.4,29.5z"/>
	<path class="st0" d="M15,33.6h-1v-0.1c0.1-0.6,0.3-1.2,0.7-1.6l0.1-0.1h0.9c0.4,0,1,0,1.5,0h0.1v0.1c-0.2,0.8-0.4,1.4-1.3,1.6
		C15.7,33.5,15.4,33.5,15,33.6z M14.3,33.3H15c0.3,0,0.7,0,1-0.1c0.7-0.2,0.9-0.7,1.1-1.3c-0.5,0-1,0-1.4,0H15l0,0
		C14.7,32.3,14.4,32.8,14.3,33.3L14.3,33.3z"/>
	<path class="st0" d="M20,36.2v0.1c0,0.1,0,0.3,0,0.4c0,0.7,0.2,1.3,0.7,1.8l0.1,0.1l0.8-1.1l0.3-0.4l0.2-0.3L20,36.2z M20.8,38.3
		c-0.4-0.4-0.6-1-0.6-1.5c0-0.1,0-0.2,0-0.2l1,0.3l0.5,0.2L20.8,38.3z M22.1,34.2c-0.8,0.1-1.5,0.6-1.9,1.4l-0.1,0.1l1.3,0.4
		l0.5,0.2l0.4,0.1v-2.2L22.1,34.2z M22,36l-1.5-0.5c0.3-0.6,0.9-1,1.5-1.1V36z M22.5,36.4c-0.2,0-0.4,0.2-0.4,0.4
		c0,0.2,0.2,0.4,0.4,0.4c0.2,0,0.4-0.2,0.4-0.4C22.9,36.5,22.7,36.4,22.5,36.4C22.5,36.4,22.5,36.4,22.5,36.4z M23,37.9l-0.5-0.7
		L21.2,39l0.1,0.1c0.4,0.2,0.8,0.3,1.2,0.3c0.4,0,0.8-0.1,1.2-0.3l0.1-0.1L23,37.9z M21.6,38.9l0.9-1.3l0.9,1.3
		C22.8,39.1,22.2,39.2,21.6,38.9L21.6,38.9z M24.8,35.6c-0.4-0.7-1-1.2-1.8-1.4h-0.1v2.2l2.1-0.7L24.8,35.6z M23,36v-1.6
		c0.6,0.1,1.2,0.6,1.5,1.1L23,36z M25.1,36.4v-0.1L23,36.9l1.3,1.8l0.1-0.1c0.5-0.5,0.7-1.1,0.7-1.8C25.1,36.6,25.1,36.5,25.1,36.4
		L25.1,36.4z M24.3,38.3l-0.9-1.3l0,0l1.5-0.5c0,0.1,0,0.1,0,0.2C24.9,37.4,24.7,37.9,24.3,38.3L24.3,38.3z M20,36.2v0.1
		c0,0.1,0,0.3,0,0.4c0,0.7,0.2,1.3,0.7,1.8l0.1,0.1l0.8-1.1l0.3-0.4l0.2-0.3L20,36.2z M20.8,38.3c-0.4-0.4-0.6-1-0.6-1.5
		c0-0.1,0-0.2,0-0.2l1,0.3l0.5,0.2L20.8,38.3z M22.1,34.2c-0.8,0.1-1.5,0.6-1.9,1.4l-0.1,0.1l1.3,0.4l0.5,0.2l0.4,0.1v-2.2
		L22.1,34.2z M22,36l-1.5-0.5c0.3-0.6,0.9-1,1.5-1.1V36z M22.5,36.4c-0.2,0-0.4,0.2-0.4,0.4c0,0.2,0.2,0.4,0.4,0.4
		c0.2,0,0.4-0.2,0.4-0.4C22.9,36.5,22.7,36.4,22.5,36.4C22.5,36.4,22.5,36.4,22.5,36.4z M23,37.9l-0.5-0.7L21.2,39l0.1,0.1
		c0.4,0.2,0.8,0.3,1.2,0.3c0.4,0,0.8-0.1,1.2-0.3l0.1-0.1L23,37.9z M21.6,38.9l0.9-1.3l0.9,1.3C22.8,39.1,22.2,39.2,21.6,38.9
		L21.6,38.9z M24.8,35.6c-0.4-0.7-1-1.2-1.8-1.4h-0.1v2.2l2.1-0.7L24.8,35.6z M23,36v-1.6c0.6,0.1,1.2,0.6,1.5,1.1L23,36z
		 M25.1,36.4v-0.1L23,36.9l1.3,1.8l0.1-0.1c0.5-0.5,0.7-1.1,0.7-1.8C25.1,36.6,25.1,36.5,25.1,36.4L25.1,36.4z M24.3,38.3l-0.9-1.3
		l0,0l1.5-0.5c0,0.1,0,0.1,0,0.2C24.9,37.4,24.7,37.9,24.3,38.3L24.3,38.3z M20,36.2v0.1c0,0.1,0,0.3,0,0.4c0,0.7,0.2,1.3,0.7,1.8
		l0.1,0.1l0.8-1.1l0.3-0.4l0.2-0.3L20,36.2z M20.8,38.3c-0.4-0.4-0.6-1-0.6-1.5c0-0.1,0-0.2,0-0.2l1,0.3l0.5,0.2L20.8,38.3z
		 M22.1,34.2c-0.8,0.1-1.5,0.6-1.9,1.4l-0.1,0.1l1.3,0.4l0.5,0.2l0.4,0.1v-2.2L22.1,34.2z M22,36l-1.5-0.5c0.3-0.6,0.9-1,1.5-1.1V36
		z M22.5,36.4c-0.2,0-0.4,0.2-0.4,0.4c0,0.2,0.2,0.4,0.4,0.4c0.2,0,0.4-0.2,0.4-0.4C22.9,36.5,22.7,36.4,22.5,36.4
		C22.5,36.4,22.5,36.4,22.5,36.4z M23,37.9l-0.5-0.7L21.2,39l0.1,0.1c0.4,0.2,0.8,0.3,1.2,0.3c0.4,0,0.8-0.1,1.2-0.3l0.1-0.1
		L23,37.9z M21.6,38.9l0.9-1.3l0.9,1.3C22.8,39.1,22.2,39.2,21.6,38.9L21.6,38.9z M24.8,35.6c-0.4-0.7-1-1.2-1.8-1.4h-0.1v2.2
		l2.1-0.7L24.8,35.6z M23,36v-1.6c0.6,0.1,1.2,0.6,1.5,1.1L23,36z M25.1,36.4v-0.1L23,36.9l1.3,1.8l0.1-0.1c0.5-0.5,0.7-1.1,0.7-1.8
		C25.1,36.6,25.1,36.5,25.1,36.4L25.1,36.4z M24.3,38.3l-0.9-1.3l0,0l1.5-0.5c0,0.1,0,0.1,0,0.2C24.9,37.4,24.7,37.9,24.3,38.3
		L24.3,38.3z M24,33.6v0.3c1.6,0.8,2.3,2.7,1.5,4.3c-0.8,1.6-2.7,2.3-4.3,1.5s-2.3-2.7-1.5-4.3c0.4-0.9,1.3-1.6,2.2-1.8l-0.1-0.2
		c-1.9,0.4-3.1,2.3-2.7,4.2c0.4,1.9,2.3,3.1,4.2,2.7c1.9-0.4,3.1-2.3,2.7-4.2C25.8,34.9,25,34,24,33.6z M24.4,38.6
		c0.5-0.5,0.7-1.1,0.7-1.8c0-0.1,0-0.3,0-0.4v-0.1L23,36.9l1.3,1.8L24.4,38.6z M23.4,37l1.5-0.5c0,0.1,0,0.1,0,0.2
		c0,0.6-0.2,1.1-0.6,1.5L23.4,37L23.4,37z M24.8,35.6c-0.4-0.7-1-1.2-1.8-1.4h-0.1v2.2l2.1-0.7L24.8,35.6z M23,36v-1.6
		c0.6,0.1,1.2,0.6,1.5,1.1L23,36z M22.5,39.4c0.4,0,0.8-0.1,1.2-0.3l0.1-0.1L23,37.9l-0.5-0.7L21.2,39l0.1,0.1
		C21.7,39.3,22.1,39.4,22.5,39.4L22.5,39.4z M22.5,37.7l0.9,1.3c-0.6,0.3-1.3,0.3-1.9,0L22.5,37.7z M22.5,37.1
		c0.2,0,0.4-0.2,0.4-0.4c0-0.2-0.2-0.4-0.4-0.4c-0.2,0-0.4,0.2-0.4,0.4c0,0,0,0,0,0C22.2,37,22.3,37.1,22.5,37.1L22.5,37.1z
		 M20.2,35.6l-0.1,0.1l1.3,0.4l0.5,0.2l0.4,0.1v-2.2h-0.1C21.3,34.3,20.6,34.8,20.2,35.6z M22,34.4V36l-1.5-0.5
		C20.8,35,21.4,34.6,22,34.4z M22.1,36.9L20,36.2v0.1c0,0.1,0,0.3,0,0.4c0,0.7,0.2,1.3,0.7,1.8l0.1,0.1l0.8-1.1l0.3-0.4L22.1,36.9z
		 M20.7,38.3c-0.4-0.4-0.6-1-0.6-1.5c0-0.1,0-0.2,0-0.2l1,0.3l0.5,0.2L20.7,38.3z M25.1,36.3v-0.1L23,36.9l1.3,1.8l0.1-0.1
		c0.5-0.5,0.7-1.1,0.7-1.8C25.1,36.6,25.1,36.5,25.1,36.3z M24.3,38.3L23.4,37l0,0l1.5-0.5c0,0.1,0,0.1,0,0.2
		C24.9,37.3,24.7,37.9,24.3,38.3z M24.8,35.6c-0.4-0.7-1-1.2-1.8-1.4h-0.1v2.2l2.1-0.7L24.8,35.6z M23,36v-1.6
		c0.6,0.1,1.2,0.6,1.5,1.1L23,36z M23,37.9l-0.5-0.7L21.2,39l0.1,0.1c0.4,0.2,0.8,0.3,1.2,0.3c0.4,0,0.8-0.1,1.2-0.3l0.1-0.1
		L23,37.9z M21.6,38.9l0.9-1.3l0.9,1.3C22.9,39.2,22.2,39.2,21.6,38.9L21.6,38.9z M22.5,36.4c-0.2,0-0.4,0.2-0.4,0.4
		c0,0.2,0.2,0.4,0.4,0.4c0.2,0,0.4-0.2,0.4-0.4C22.9,36.5,22.7,36.4,22.5,36.4C22.5,36.4,22.5,36.4,22.5,36.4L22.5,36.4z M22.1,34.2
		c-0.8,0.1-1.5,0.6-1.9,1.4l-0.1,0.1l1.3,0.4l0.5,0.2l0.4,0.1v-2.2L22.1,34.2z M22,36l-1.5-0.5c0.3-0.6,0.9-1,1.5-1.1V36z M20,36.2
		v0.1c0,0.1,0,0.3,0,0.4c0,0.7,0.2,1.3,0.7,1.8l0.1,0.1l0.8-1.1l0.3-0.4l0.2-0.3L20,36.2z M20.8,38.3c-0.4-0.4-0.6-1-0.6-1.5
		c0-0.1,0-0.2,0-0.2l1,0.3l0.5,0.2L20.8,38.3z M25.1,36.3v-0.1L23,36.9l1.3,1.8l0.1-0.1c0.5-0.5,0.7-1.1,0.7-1.8
		C25.1,36.6,25.1,36.5,25.1,36.3L25.1,36.3z M24.3,38.3L23.4,37l0,0l1.5-0.5c0,0.1,0,0.1,0,0.2C24.9,37.3,24.7,37.9,24.3,38.3
		L24.3,38.3z M24.8,35.6c-0.4-0.7-1-1.2-1.8-1.4h-0.1v2.2l2.1-0.7L24.8,35.6z M23,36v-1.6c0.6,0.1,1.2,0.6,1.5,1.1L23,36z M23,37.9
		l-0.5-0.7L21.2,39l0.1,0.1c0.4,0.2,0.8,0.3,1.2,0.3c0.4,0,0.8-0.1,1.2-0.3l0.1-0.1L23,37.9z M21.6,38.9l0.9-1.3l0.9,1.3
		C22.9,39.2,22.2,39.2,21.6,38.9L21.6,38.9z M22.5,36.4c-0.2,0-0.4,0.2-0.4,0.4c0,0.2,0.2,0.4,0.4,0.4c0.2,0,0.4-0.2,0.4-0.4
		C22.9,36.5,22.7,36.4,22.5,36.4C22.5,36.4,22.5,36.4,22.5,36.4L22.5,36.4z M22.1,34.2c-0.8,0.1-1.5,0.6-1.9,1.4l-0.1,0.1l1.3,0.4
		l0.5,0.2l0.4,0.1v-2.2L22.1,34.2z M22,36l-1.5-0.5c0.3-0.6,0.9-1,1.5-1.1V36z M20,36.2v0.1c0,0.1,0,0.3,0,0.4
		c0,0.7,0.2,1.3,0.7,1.8l0.1,0.1l0.8-1.1l0.3-0.4l0.2-0.3L20,36.2z M20.8,38.3c-0.4-0.4-0.6-1-0.6-1.5c0-0.1,0-0.2,0-0.2l1,0.3
		l0.5,0.2L20.8,38.3z M25.1,36.3v-0.1L23,36.9l1.3,1.8l0.1-0.1c0.5-0.5,0.7-1.1,0.7-1.8C25.1,36.6,25.1,36.5,25.1,36.3L25.1,36.3z
		 M24.3,38.3L23.4,37l0,0l1.5-0.5c0,0.1,0,0.1,0,0.2C24.9,37.3,24.7,37.9,24.3,38.3L24.3,38.3z M24.8,35.6c-0.4-0.7-1-1.2-1.8-1.4
		h-0.1v2.2l2.1-0.7L24.8,35.6z M23,36v-1.6c0.6,0.1,1.2,0.6,1.5,1.1L23,36z M23,37.9l-0.5-0.7L21.2,39l0.1,0.1
		c0.4,0.2,0.8,0.3,1.2,0.3c0.4,0,0.8-0.1,1.2-0.3l0.1-0.1L23,37.9z M21.6,38.9l0.9-1.3l0.9,1.3C22.9,39.2,22.2,39.2,21.6,38.9
		L21.6,38.9z M22.5,36.4c-0.2,0-0.4,0.2-0.4,0.4c0,0.2,0.2,0.4,0.4,0.4c0.2,0,0.4-0.2,0.4-0.4C22.9,36.5,22.7,36.4,22.5,36.4
		C22.5,36.4,22.5,36.4,22.5,36.4L22.5,36.4z M22.1,34.2c-0.8,0.1-1.5,0.6-1.9,1.4l-0.1,0.1l1.3,0.4l0.5,0.2l0.4,0.1v-2.2L22.1,34.2z
		 M22,36l-1.5-0.5c0.3-0.6,0.9-1,1.5-1.1V36z M20,36.2v0.1c0,0.1,0,0.3,0,0.4c0,0.7,0.2,1.3,0.7,1.8l0.1,0.1l0.8-1.1l0.3-0.4
		l0.2-0.3L20,36.2z M20.8,38.3c-0.4-0.4-0.6-1-0.6-1.5c0-0.1,0-0.2,0-0.2l1,0.3l0.5,0.2L20.8,38.3z M20,36.2v0.1c0,0.1,0,0.3,0,0.4
		c0,0.7,0.2,1.3,0.7,1.8l0.1,0.1l0.8-1.1l0.3-0.4l0.2-0.3L20,36.2z M20.8,38.3c-0.4-0.4-0.6-1-0.6-1.5c0-0.1,0-0.2,0-0.2l1,0.3
		l0.5,0.2L20.8,38.3z M22.1,34.2c-0.8,0.1-1.5,0.6-1.9,1.4l-0.1,0.1l1.3,0.4l0.5,0.2l0.4,0.1v-2.2L22.1,34.2z M22,36l-1.5-0.5
		c0.3-0.6,0.9-1,1.5-1.1V36z M22.5,36.4c-0.2,0-0.4,0.2-0.4,0.4c0,0.2,0.2,0.4,0.4,0.4c0.2,0,0.4-0.2,0.4-0.4
		C22.9,36.5,22.7,36.4,22.5,36.4C22.5,36.4,22.5,36.4,22.5,36.4z M23,37.9l-0.5-0.7L21.2,39l0.1,0.1c0.4,0.2,0.8,0.3,1.2,0.3
		c0.4,0,0.8-0.1,1.2-0.3l0.1-0.1L23,37.9z M21.6,38.9l0.9-1.3l0.9,1.3C22.8,39.1,22.2,39.2,21.6,38.9L21.6,38.9z M24.8,35.6
		c-0.4-0.7-1-1.2-1.8-1.4h-0.1v2.2l2.1-0.7L24.8,35.6z M23,36v-1.6c0.6,0.1,1.2,0.6,1.5,1.1L23,36z M25.1,36.4v-0.1L23,36.9l1.3,1.8
		l0.1-0.1c0.5-0.5,0.7-1.1,0.7-1.8C25.1,36.6,25.1,36.5,25.1,36.4L25.1,36.4z M24.3,38.3l-0.9-1.3l0,0l1.5-0.5c0,0.1,0,0.1,0,0.2
		C24.9,37.4,24.7,37.9,24.3,38.3L24.3,38.3z M25.1,36.4v-0.1L23,36.9l1.3,1.8l0.1-0.1c0.5-0.5,0.7-1.1,0.7-1.8
		C25.1,36.6,25.1,36.5,25.1,36.4L25.1,36.4z M24.3,38.3l-0.9-1.3l0,0l1.5-0.5c0,0.1,0,0.1,0,0.2C24.9,37.4,24.7,37.9,24.3,38.3
		L24.3,38.3z M24.8,35.6c-0.4-0.7-1-1.2-1.8-1.4h-0.1v2.2l2.1-0.7L24.8,35.6z M23,36v-1.6c0.6,0.1,1.2,0.6,1.5,1.1L23,36z M23,37.9
		l-0.5-0.7L21.2,39l0.1,0.1c0.4,0.2,0.8,0.3,1.2,0.3c0.4,0,0.8-0.1,1.2-0.3l0.1-0.1L23,37.9z M21.6,38.9l0.9-1.3l0.9,1.3
		C22.9,39.2,22.2,39.2,21.6,38.9L21.6,38.9z M22.5,36.4c-0.2,0-0.4,0.2-0.4,0.4c0,0.2,0.2,0.4,0.4,0.4c0.2,0,0.4-0.2,0.4-0.4
		C22.9,36.5,22.7,36.4,22.5,36.4C22.5,36.4,22.5,36.4,22.5,36.4L22.5,36.4z M22.1,34.2c-0.8,0.1-1.5,0.6-1.9,1.4l-0.1,0.1l1.3,0.4
		l0.5,0.2l0.4,0.1v-2.2L22.1,34.2z M22,36l-1.5-0.5c0.3-0.6,0.9-1,1.5-1.1V36z M20,36.2v0.1c0,0.1,0,0.3,0,0.4
		c0,0.7,0.2,1.3,0.7,1.8l0.1,0.1l0.8-1.1l0.3-0.4l0.2-0.3L20,36.2z M20.8,38.3c-0.4-0.4-0.6-1-0.6-1.5c0-0.1,0-0.2,0-0.2l1,0.3
		l0.5,0.2L20.8,38.3z M20,36.2v0.1c0,0.1,0,0.3,0,0.4c0,0.7,0.2,1.3,0.7,1.8l0.1,0.1l0.8-1.1l0.3-0.4l0.2-0.3L20,36.2z M20.8,38.3
		c-0.4-0.4-0.6-1-0.6-1.5c0-0.1,0-0.2,0-0.2l1,0.3l0.5,0.2L20.8,38.3z M22.1,34.2c-0.8,0.1-1.5,0.6-1.9,1.4l-0.1,0.1l1.3,0.4
		l0.5,0.2l0.4,0.1v-2.2L22.1,34.2z M22,36l-1.5-0.5c0.3-0.6,0.9-1,1.5-1.1V36z M22.5,36.4c-0.2,0-0.4,0.2-0.4,0.4
		c0,0.2,0.2,0.4,0.4,0.4c0.2,0,0.4-0.2,0.4-0.4C22.9,36.5,22.7,36.4,22.5,36.4C22.5,36.4,22.5,36.4,22.5,36.4z M23,37.9l-0.5-0.7
		L21.2,39l0.1,0.1c0.4,0.2,0.8,0.3,1.2,0.3c0.4,0,0.8-0.1,1.2-0.3l0.1-0.1L23,37.9z M21.6,38.9l0.9-1.3l0.9,1.3
		C22.8,39.1,22.2,39.2,21.6,38.9L21.6,38.9z M24.8,35.6c-0.4-0.7-1-1.2-1.8-1.4h-0.1v2.2l2.1-0.7L24.8,35.6z M23,36v-1.6
		c0.6,0.1,1.2,0.6,1.5,1.1L23,36z M25.1,36.4v-0.1L23,36.9l1.3,1.8l0.1-0.1c0.5-0.5,0.7-1.1,0.7-1.8C25.1,36.6,25.1,36.5,25.1,36.4
		L25.1,36.4z M24.3,38.3l-0.9-1.3l0,0l1.5-0.5c0,0.1,0,0.1,0,0.2C24.9,37.4,24.7,37.9,24.3,38.3L24.3,38.3z M25.1,36.4v-0.1L23,36.9
		l1.3,1.8l0.1-0.1c0.5-0.5,0.7-1.1,0.7-1.8C25.1,36.6,25.1,36.5,25.1,36.4L25.1,36.4z M24.3,38.3l-0.9-1.3l0,0l1.5-0.5
		c0,0.1,0,0.1,0,0.2C24.9,37.4,24.7,37.9,24.3,38.3L24.3,38.3z M24.8,35.6c-0.4-0.7-1-1.2-1.8-1.4h-0.1v2.2l2.1-0.7L24.8,35.6z
		 M23,36v-1.6c0.6,0.1,1.2,0.6,1.5,1.1L23,36z M23,37.9l-0.5-0.7L21.2,39l0.1,0.1c0.4,0.2,0.8,0.3,1.2,0.3c0.4,0,0.8-0.1,1.2-0.3
		l0.1-0.1L23,37.9z M21.6,38.9l0.9-1.3l0.9,1.3C22.9,39.2,22.2,39.2,21.6,38.9L21.6,38.9z M22.5,36.4c-0.2,0-0.4,0.2-0.4,0.4
		c0,0.2,0.2,0.4,0.4,0.4c0.2,0,0.4-0.2,0.4-0.4C22.9,36.5,22.7,36.4,22.5,36.4C22.5,36.4,22.5,36.4,22.5,36.4L22.5,36.4z M22.1,34.2
		c-0.8,0.1-1.5,0.6-1.9,1.4l-0.1,0.1l1.3,0.4l0.5,0.2l0.4,0.1v-2.2L22.1,34.2z M22,36l-1.5-0.5c0.3-0.6,0.9-1,1.5-1.1V36z M20,36.2
		v0.1c0,0.1,0,0.3,0,0.4c0,0.7,0.2,1.3,0.7,1.8l0.1,0.1l0.8-1.1l0.3-0.4l0.2-0.3L20,36.2z M20.8,38.3c-0.4-0.4-0.6-1-0.6-1.5
		c0-0.1,0-0.2,0-0.2l1,0.3l0.5,0.2L20.8,38.3z M20,36.2v0.1c0,0.1,0,0.3,0,0.4c0,0.7,0.2,1.3,0.7,1.8l0.1,0.1l0.8-1.1l0.3-0.4
		l0.2-0.3L20,36.2z M20.8,38.3c-0.4-0.4-0.6-1-0.6-1.5c0-0.1,0-0.2,0-0.2l1,0.3l0.5,0.2L20.8,38.3z M22.1,34.2
		c-0.8,0.1-1.5,0.6-1.9,1.4l-0.1,0.1l1.3,0.4l0.5,0.2l0.4,0.1v-2.2L22.1,34.2z M22,36l-1.5-0.5c0.3-0.6,0.9-1,1.5-1.1V36z
		 M22.5,36.4c-0.2,0-0.4,0.2-0.4,0.4c0,0.2,0.2,0.4,0.4,0.4c0.2,0,0.4-0.2,0.4-0.4C22.9,36.5,22.7,36.4,22.5,36.4
		C22.5,36.4,22.5,36.4,22.5,36.4z M23,37.9l-0.5-0.7L21.2,39l0.1,0.1c0.4,0.2,0.8,0.3,1.2,0.3c0.4,0,0.8-0.1,1.2-0.3l0.1-0.1
		L23,37.9z M21.6,38.9l0.9-1.3l0.9,1.3C22.8,39.1,22.2,39.2,21.6,38.9L21.6,38.9z M24.8,35.6c-0.4-0.7-1-1.2-1.8-1.4h-0.1v2.2
		l2.1-0.7L24.8,35.6z M23,36v-1.6c0.6,0.1,1.2,0.6,1.5,1.1L23,36z M25.1,36.4v-0.1L23,36.9l1.3,1.8l0.1-0.1c0.5-0.5,0.7-1.1,0.7-1.8
		C25.1,36.6,25.1,36.5,25.1,36.4L25.1,36.4z M24.3,38.3l-0.9-1.3l0,0l1.5-0.5c0,0.1,0,0.1,0,0.2C24.9,37.4,24.7,37.9,24.3,38.3
		L24.3,38.3z M25.1,36.4v-0.1L23,36.9l1.3,1.8l0.1-0.1c0.5-0.5,0.7-1.1,0.7-1.8C25.1,36.6,25.1,36.5,25.1,36.4L25.1,36.4z
		 M24.3,38.3l-0.9-1.3l0,0l1.5-0.5c0,0.1,0,0.1,0,0.2C24.9,37.4,24.7,37.9,24.3,38.3L24.3,38.3z M24.8,35.6c-0.4-0.7-1-1.2-1.8-1.4
		h-0.1v2.2l2.1-0.7L24.8,35.6z M23,36v-1.6c0.6,0.1,1.2,0.6,1.5,1.1L23,36z M23,37.9l-0.5-0.7L21.2,39l0.1,0.1
		c0.4,0.2,0.8,0.3,1.2,0.3c0.4,0,0.8-0.1,1.2-0.3l0.1-0.1L23,37.9z M21.6,38.9l0.9-1.3l0.9,1.3C22.9,39.2,22.2,39.2,21.6,38.9
		L21.6,38.9z M22.5,36.4c-0.2,0-0.4,0.2-0.4,0.4c0,0.2,0.2,0.4,0.4,0.4c0.2,0,0.4-0.2,0.4-0.4C22.9,36.5,22.7,36.4,22.5,36.4
		C22.5,36.4,22.5,36.4,22.5,36.4L22.5,36.4z M22.1,34.2c-0.8,0.1-1.5,0.6-1.9,1.4l-0.1,0.1l1.3,0.4l0.5,0.2l0.4,0.1v-2.2L22.1,34.2z
		 M22,36l-1.5-0.5c0.3-0.6,0.9-1,1.5-1.1V36z M20,36.2v0.1c0,0.1,0,0.3,0,0.4c0,0.7,0.2,1.3,0.7,1.8l0.1,0.1l0.8-1.1l0.3-0.4
		l0.2-0.3L20,36.2z M20.8,38.3c-0.4-0.4-0.6-1-0.6-1.5c0-0.1,0-0.2,0-0.2l1,0.3l0.5,0.2L20.8,38.3z M20,36.2v0.1c0,0.1,0,0.3,0,0.4
		c0,0.7,0.2,1.3,0.7,1.8l0.1,0.1l0.8-1.1l0.3-0.4l0.2-0.3L20,36.2z M20.8,38.3c-0.4-0.4-0.6-1-0.6-1.5c0-0.1,0-0.2,0-0.2l1,0.3
		l0.5,0.2L20.8,38.3z M22.1,34.2c-0.8,0.1-1.5,0.6-1.9,1.4l-0.1,0.1l1.3,0.4l0.5,0.2l0.4,0.1v-2.2L22.1,34.2z M22,36l-1.5-0.5
		c0.3-0.6,0.9-1,1.5-1.1V36z M22.5,36.4c-0.2,0-0.4,0.2-0.4,0.4c0,0.2,0.2,0.4,0.4,0.4c0.2,0,0.4-0.2,0.4-0.4
		C22.9,36.5,22.7,36.4,22.5,36.4C22.5,36.4,22.5,36.4,22.5,36.4z M23,37.9l-0.5-0.7L21.2,39l0.1,0.1c0.4,0.2,0.8,0.3,1.2,0.3
		c0.4,0,0.8-0.1,1.2-0.3l0.1-0.1L23,37.9z M21.6,38.9l0.9-1.3l0.9,1.3C22.8,39.1,22.2,39.2,21.6,38.9L21.6,38.9z M24.8,35.6
		c-0.4-0.7-1-1.2-1.8-1.4h-0.1v2.2l2.1-0.7L24.8,35.6z M23,36v-1.6c0.6,0.1,1.2,0.6,1.5,1.1L23,36z M25.1,36.4v-0.1L23,36.9l1.3,1.8
		l0.1-0.1c0.5-0.5,0.7-1.1,0.7-1.8C25.1,36.6,25.1,36.5,25.1,36.4L25.1,36.4z M24.3,38.3l-0.9-1.3l0,0l1.5-0.5c0,0.1,0,0.1,0,0.2
		C24.9,37.4,24.7,37.9,24.3,38.3L24.3,38.3z M25.1,36.4v-0.1L23,36.9l1.3,1.8l0.1-0.1c0.5-0.5,0.7-1.1,0.7-1.8
		C25.1,36.6,25.1,36.5,25.1,36.4L25.1,36.4z M24.3,38.3l-0.9-1.3l0,0l1.5-0.5c0,0.1,0,0.1,0,0.2C24.9,37.4,24.7,37.9,24.3,38.3
		L24.3,38.3z M24.8,35.6c-0.4-0.7-1-1.2-1.8-1.4h-0.1v2.2l2.1-0.7L24.8,35.6z M23,36v-1.6c0.6,0.1,1.2,0.6,1.5,1.1L23,36z M23,37.9
		l-0.5-0.7L21.2,39l0.1,0.1c0.4,0.2,0.8,0.3,1.2,0.3c0.4,0,0.8-0.1,1.2-0.3l0.1-0.1L23,37.9z M21.6,38.9l0.9-1.3l0.9,1.3
		C22.9,39.2,22.2,39.2,21.6,38.9L21.6,38.9z M22.5,36.4c-0.2,0-0.4,0.2-0.4,0.4c0,0.2,0.2,0.4,0.4,0.4c0.2,0,0.4-0.2,0.4-0.4
		C22.9,36.5,22.7,36.4,22.5,36.4C22.5,36.4,22.5,36.4,22.5,36.4L22.5,36.4z M22.1,34.2c-0.8,0.1-1.5,0.6-1.9,1.4l-0.1,0.1l1.3,0.4
		l0.5,0.2l0.4,0.1v-2.2L22.1,34.2z M22,36l-1.5-0.5c0.3-0.6,0.9-1,1.5-1.1V36z M20,36.2v0.1c0,0.1,0,0.3,0,0.4
		c0,0.7,0.2,1.3,0.7,1.8l0.1,0.1l0.8-1.1l0.3-0.4l0.2-0.3L20,36.2z M20.8,38.3c-0.4-0.4-0.6-1-0.6-1.5c0-0.1,0-0.2,0-0.2l1,0.3
		l0.5,0.2L20.8,38.3z M20,36.2v0.1c0,0.1,0,0.3,0,0.4c0,0.7,0.2,1.3,0.7,1.8l0.1,0.1l0.8-1.1l0.3-0.4l0.2-0.3L20,36.2z M20.8,38.3
		c-0.4-0.4-0.6-1-0.6-1.5c0-0.1,0-0.2,0-0.2l1,0.3l0.5,0.2L20.8,38.3z M22.1,34.2c-0.8,0.1-1.5,0.6-1.9,1.4l-0.1,0.1l1.3,0.4
		l0.5,0.2l0.4,0.1v-2.2L22.1,34.2z M22,36l-1.5-0.5c0.3-0.6,0.9-1,1.5-1.1V36z M22.5,36.4c-0.2,0-0.4,0.2-0.4,0.4
		c0,0.2,0.2,0.4,0.4,0.4c0.2,0,0.4-0.2,0.4-0.4C22.9,36.5,22.7,36.4,22.5,36.4C22.5,36.4,22.5,36.4,22.5,36.4z M23,37.9l-0.5-0.7
		L21.2,39l0.1,0.1c0.4,0.2,0.8,0.3,1.2,0.3c0.4,0,0.8-0.1,1.2-0.3l0.1-0.1L23,37.9z M21.6,38.9l0.9-1.3l0.9,1.3
		C22.8,39.1,22.2,39.2,21.6,38.9L21.6,38.9z M24.8,35.6c-0.4-0.7-1-1.2-1.8-1.4h-0.1v2.2l2.1-0.7L24.8,35.6z M23,36v-1.6
		c0.6,0.1,1.2,0.6,1.5,1.1L23,36z M25.1,36.4v-0.1L23,36.9l1.3,1.8l0.1-0.1c0.5-0.5,0.7-1.1,0.7-1.8C25.1,36.6,25.1,36.5,25.1,36.4
		L25.1,36.4z M24.3,38.3l-0.9-1.3l0,0l1.5-0.5c0,0.1,0,0.1,0,0.2C24.9,37.4,24.7,37.9,24.3,38.3L24.3,38.3z M25.1,36.4v-0.1L23,36.9
		l1.3,1.8l0.1-0.1c0.5-0.5,0.7-1.1,0.7-1.8C25.1,36.6,25.1,36.5,25.1,36.4L25.1,36.4z M24.3,38.3l-0.9-1.3l0,0l1.5-0.5
		c0,0.1,0,0.1,0,0.2C24.9,37.4,24.7,37.9,24.3,38.3L24.3,38.3z M24.8,35.6c-0.4-0.7-1-1.2-1.8-1.4h-0.1v2.2l2.1-0.7L24.8,35.6z
		 M23,36v-1.6c0.6,0.1,1.2,0.6,1.5,1.1L23,36z M23,37.9l-0.5-0.7L21.2,39l0.1,0.1c0.4,0.2,0.8,0.3,1.2,0.3c0.4,0,0.8-0.1,1.2-0.3
		l0.1-0.1L23,37.9z M21.6,38.9l0.9-1.3l0.9,1.3C22.9,39.2,22.2,39.2,21.6,38.9L21.6,38.9z M22.5,36.4c-0.2,0-0.4,0.2-0.4,0.4
		c0,0.2,0.2,0.4,0.4,0.4c0.2,0,0.4-0.2,0.4-0.4C22.9,36.5,22.7,36.4,22.5,36.4C22.5,36.4,22.5,36.4,22.5,36.4L22.5,36.4z M22.1,34.2
		c-0.8,0.1-1.5,0.6-1.9,1.4l-0.1,0.1l1.3,0.4l0.5,0.2l0.4,0.1v-2.2L22.1,34.2z M22,36l-1.5-0.5c0.3-0.6,0.9-1,1.5-1.1V36z M20,36.2
		v0.1c0,0.1,0,0.3,0,0.4c0,0.7,0.2,1.3,0.7,1.8l0.1,0.1l0.8-1.1l0.3-0.4l0.2-0.3L20,36.2z M20.8,38.3c-0.4-0.4-0.6-1-0.6-1.5
		c0-0.1,0-0.2,0-0.2l1,0.3l0.5,0.2L20.8,38.3z M20,36.2v0.1c0,0.1,0,0.3,0,0.4c0,0.7,0.2,1.3,0.7,1.8l0.1,0.1l0.8-1.1l0.3-0.4
		l0.2-0.3L20,36.2z M20.8,38.3c-0.4-0.4-0.6-1-0.6-1.5c0-0.1,0-0.2,0-0.2l1,0.3l0.5,0.2L20.8,38.3z M22.1,34.2
		c-0.8,0.1-1.5,0.6-1.9,1.4l-0.1,0.1l1.3,0.4l0.5,0.2l0.4,0.1v-2.2L22.1,34.2z M22,36l-1.5-0.5c0.3-0.6,0.9-1,1.5-1.1V36z
		 M22.5,36.4c-0.2,0-0.4,0.2-0.4,0.4c0,0.2,0.2,0.4,0.4,0.4c0.2,0,0.4-0.2,0.4-0.4C22.9,36.5,22.7,36.4,22.5,36.4
		C22.5,36.4,22.5,36.4,22.5,36.4z M23,37.9l-0.5-0.7L21.2,39l0.1,0.1c0.4,0.2,0.8,0.3,1.2,0.3c0.4,0,0.8-0.1,1.2-0.3l0.1-0.1
		L23,37.9z M21.6,38.9l0.9-1.3l0.9,1.3C22.8,39.1,22.2,39.2,21.6,38.9L21.6,38.9z M24.8,35.6c-0.4-0.7-1-1.2-1.8-1.4h-0.1v2.2
		l2.1-0.7L24.8,35.6z M23,36v-1.6c0.6,0.1,1.2,0.6,1.5,1.1L23,36z M25.1,36.4v-0.1L23,36.9l1.3,1.8l0.1-0.1c0.5-0.5,0.7-1.1,0.7-1.8
		C25.1,36.6,25.1,36.5,25.1,36.4L25.1,36.4z M24.3,38.3l-0.9-1.3l0,0l1.5-0.5c0,0.1,0,0.1,0,0.2C24.9,37.4,24.7,37.9,24.3,38.3
		L24.3,38.3z M23,37.9l-0.5-0.7L21.2,39l0.1,0.1c0.4,0.2,0.8,0.3,1.2,0.3c0.4,0,0.8-0.1,1.2-0.3l0.1-0.1L23,37.9z M21.6,38.9
		l0.9-1.3l0.9,1.3C22.8,39.1,22.2,39.2,21.6,38.9L21.6,38.9z M25.1,36.3v-0.1L23,36.9l1.3,1.8l0.1-0.1c0.5-0.5,0.7-1.1,0.7-1.8
		C25.1,36.6,25.1,36.5,25.1,36.3L25.1,36.3z M24.3,38.3L23.4,37l0,0l1.5-0.5c0,0.1,0,0.1,0,0.2C24.9,37.3,24.7,37.9,24.3,38.3
		L24.3,38.3z M20,36.2v0.1c0,0.1,0,0.3,0,0.4c0,0.7,0.2,1.3,0.7,1.8l0.1,0.1l0.8-1.1l0.3-0.4l0.2-0.3L20,36.2z M20.8,38.3
		c-0.4-0.4-0.6-1-0.6-1.5c0-0.1,0-0.2,0-0.2l1,0.3l0.5,0.2L20.8,38.3z M22.6,36.4c-0.2,0-0.4,0.2-0.4,0.4c0,0.2,0.2,0.4,0.4,0.4
		c0.2,0,0.4-0.2,0.4-0.4C22.9,36.5,22.8,36.4,22.6,36.4C22.5,36.4,22.5,36.4,22.6,36.4L22.6,36.4z M24.8,35.6
		c-0.4-0.7-1-1.2-1.8-1.4h-0.1v2.2l2.1-0.7L24.8,35.6z M23,36v-1.6c0.6,0.1,1.2,0.6,1.5,1.1L23,36z M22.1,34.2
		c-0.8,0.1-1.5,0.6-1.9,1.4l-0.1,0.1l1.3,0.4l0.5,0.2l0.4,0.1v-2.2L22.1,34.2z M22,36l-1.5-0.5c0.3-0.6,0.9-1,1.5-1.1V36z"/>
	<path class="st0" d="M20.8,38.7l-0.1-0.1c-0.5-0.5-0.8-1.1-0.8-1.8c0-0.1,0-0.3,0-0.4v-0.1l2.1,0.7l-0.2,0.3l-0.3,0.4L20.8,38.7z
		 M20.2,36.6c0,0.1,0,0.2,0,0.2c0,0.6,0.2,1.1,0.6,1.5l0.9-1.3l-0.5-0.2L20.2,36.6z"/>
	<path class="st0" d="M22.3,36.4l-0.4-0.1l-0.5-0.2l-1.3-0.4l0.1-0.1c0.4-0.7,1.1-1.2,1.9-1.4h0.1V36.4z M20.5,35.6L22,36v-1.6
		C21.4,34.6,20.8,35,20.5,35.6z"/>
	<path class="st0" d="M22.5,39.4c-0.4,0-0.8-0.1-1.2-0.3L21.2,39l1.3-1.8l0.5,0.7l0.8,1.1l-0.1,0.1C23.3,39.3,22.9,39.4,22.5,39.4z
		 M21.6,38.9c0.6,0.3,1.3,0.3,1.9,0l-0.9-1.3L21.6,38.9z"/>
	<path class="st0" d="M22.8,36.4v-2.2h0.1c0.8,0.1,1.5,0.7,1.9,1.4l0.1,0.1L22.8,36.4z M23,34.4V36l1.5-0.5
		C24.2,35,23.7,34.6,23,34.4z"/>
	<path class="st0" d="M24.3,38.7L23,36.9l2.1-0.7v0.1c0,0.1,0,0.3,0,0.4c0,0.7-0.2,1.3-0.7,1.8L24.3,38.7z M23.4,37L23.4,37l0.9,1.3
		c0.4-0.4,0.6-1,0.6-1.5c0-0.1,0-0.1,0-0.2L23.4,37z"/>
	<path class="st0" d="M20.8,38.7l-0.1-0.1c-0.5-0.5-0.8-1.1-0.8-1.8c0-0.1,0-0.3,0-0.4v-0.1l2.1,0.7l-0.2,0.3l-0.3,0.4L20.8,38.7z
		 M20.2,36.6c0,0.1,0,0.2,0,0.2c0,0.6,0.2,1.1,0.6,1.5l0.9-1.3l-0.5-0.2L20.2,36.6z"/>
	<path class="st0" d="M22.3,36.4l-0.4-0.1l-0.5-0.2l-1.3-0.4l0.1-0.1c0.4-0.7,1.1-1.2,1.9-1.4h0.1V36.4z M20.5,35.6L22,36v-1.6
		C21.4,34.6,20.8,35,20.5,35.6z"/>
	<path class="st0" d="M22.5,39.4c-0.4,0-0.8-0.1-1.2-0.3L21.2,39l1.3-1.8l0.5,0.7l0.8,1.1l-0.1,0.1C23.3,39.3,22.9,39.4,22.5,39.4z
		 M21.6,38.9c0.6,0.3,1.3,0.3,1.9,0l-0.9-1.3L21.6,38.9z"/>
	<path class="st0" d="M22.8,36.4v-2.2h0.1c0.8,0.1,1.5,0.7,1.9,1.4l0.1,0.1L22.8,36.4z M23,34.4V36l1.5-0.5
		C24.2,35,23.7,34.6,23,34.4z"/>
	<path class="st0" d="M24.3,38.7L23,36.9l2.1-0.7v0.1c0,0.1,0,0.3,0,0.4c0,0.7-0.2,1.3-0.7,1.8L24.3,38.7z M23.4,37L23.4,37l0.9,1.3
		c0.4-0.4,0.6-1,0.6-1.5c0-0.1,0-0.1,0-0.2L23.4,37z"/>
	<path class="st0" d="M51.7,40.3c-1.9,0-3.5-1.6-3.5-3.5c0-1.9,1.6-3.5,3.5-3.5c1.9,0,3.5,1.6,3.5,3.5c0,0,0,0,0,0
		C55.2,38.7,53.6,40.3,51.7,40.3C51.7,40.3,51.7,40.3,51.7,40.3z M51.7,33.5c-1.8,0-3.3,1.5-3.3,3.3c0,1.8,1.5,3.3,3.3,3.3
		c1.8,0,3.3-1.5,3.3-3.3C54.9,34.9,53.5,33.5,51.7,33.5C51.7,33.5,51.7,33.5,51.7,33.5z M51.7,39.4c-0.4,0-0.8-0.1-1.2-0.3L50.3,39
		l1.3-1.8l0.5,0.7L53,39l-0.1,0.1C52.5,39.3,52.1,39.4,51.7,39.4z M50.7,38.9c0.6,0.3,1.3,0.3,1.9,0l-0.9-1.3L50.7,38.9z M53.4,38.7
		l-1.3-1.8l2.1-0.7v0.1c0,0.1,0,0.3,0,0.4c0,0.7-0.2,1.3-0.7,1.8L53.4,38.7z M52.5,37L52.5,37l0.9,1.3c0.4-0.4,0.6-1,0.6-1.5
		c0-0.1,0-0.1,0-0.2L52.5,37z M49.9,38.7L49.9,38.7c-0.6-0.6-0.9-1.2-0.9-1.9c0-0.1,0-0.3,0-0.4v-0.1l2.1,0.7l-0.2,0.3l-0.3,0.4
		L49.9,38.7z M49.3,36.6c0,0.1,0,0.2,0,0.2c0,0.6,0.2,1.1,0.6,1.5l0.9-1.3l-0.5-0.2L49.3,36.6z M51.7,37.1c-0.2,0-0.4-0.1-0.4-0.3
		c0-0.2,0.1-0.4,0.3-0.4c0.2,0,0.4,0.1,0.4,0.3c0,0,0,0,0,0C52,36.9,51.8,37.1,51.7,37.1L51.7,37.1z M51.9,36.4v-2.2h0.2
		c0.8,0.1,1.5,0.7,1.9,1.4l0.1,0.1L51.9,36.4z M52.2,34.5V36l1.5-0.5C53.4,35,52.8,34.6,52.2,34.5L52.2,34.5z M51.4,36.4L51,36.2
		l-0.5-0.2l-1.3-0.4l0.1-0.1c0.4-0.7,1.1-1.2,1.9-1.4h0.1L51.4,36.4z M49.6,35.6l1.5,0.5v-1.6C50.5,34.6,50,35,49.6,35.6z"/>
	<path class="st0" d="M49.9,38.7l-0.1-0.1c-0.5-0.5-0.8-1.1-0.8-1.8c0-0.1,0-0.3,0-0.4v-0.1l2.1,0.7l-0.2,0.3l-0.3,0.4L49.9,38.7z
		 M49.3,36.6c0,0.1,0,0.2,0,0.2c0,0.6,0.2,1.1,0.6,1.5l0.9-1.3l-0.5-0.2L49.3,36.6z"/>
	<path class="st0" d="M51.4,36.4L51,36.2l-0.5-0.2l-1.3-0.4l0.1-0.1c0.4-0.7,1.1-1.2,1.9-1.4h0.1L51.4,36.4z M49.6,35.6l1.5,0.5
		v-1.6C50.5,34.6,50,35,49.6,35.6z"/>
	<path class="st0" d="M51.7,39.4c-0.4,0-0.8-0.1-1.2-0.3L50.3,39l1.3-1.8l0.5,0.7L53,39l-0.1,0.1C52.5,39.3,52.1,39.4,51.7,39.4z
		 M50.7,38.9c0.6,0.3,1.3,0.3,1.9,0l-0.9-1.3L50.7,38.9z"/>
	<path class="st0" d="M51.9,36.4v-2.2h0.2c0.8,0.1,1.5,0.7,1.9,1.4l0.1,0.1L51.9,36.4z M52.2,34.4V36l1.5-0.5
		C53.4,35,52.8,34.6,52.2,34.4z"/>
	<path class="st0" d="M53.4,38.7l-1.3-1.8l2.1-0.7v0.1c0,0.1,0,0.3,0,0.4c0,0.7-0.2,1.3-0.7,1.8L53.4,38.7z M52.5,37L52.5,37
		l0.9,1.3c0.4-0.4,0.6-1,0.6-1.5c0-0.1,0-0.1,0-0.2L52.5,37z"/>
	<path class="st0" d="M49.9,38.7l-0.1-0.1c-0.5-0.5-0.8-1.1-0.8-1.8c0-0.1,0-0.3,0-0.4v-0.1l2.1,0.7l-0.2,0.3l-0.3,0.4L49.9,38.7z
		 M49.3,36.6c0,0.1,0,0.2,0,0.2c0,0.6,0.2,1.1,0.6,1.5l0.9-1.3l-0.5-0.2L49.3,36.6z"/>
	<path class="st0" d="M51.4,36.4L51,36.2l-0.5-0.2l-1.3-0.4l0.1-0.1c0.4-0.7,1.1-1.2,1.9-1.4h0.1L51.4,36.4z M49.6,35.6l1.5,0.5
		v-1.6C50.5,34.6,50,35,49.6,35.6z"/>
	<path class="st0" d="M51.7,39.4c-0.4,0-0.8-0.1-1.2-0.3L50.3,39l1.3-1.8l0.5,0.7L53,39l-0.1,0.1C52.5,39.3,52.1,39.4,51.7,39.4z
		 M50.7,38.9c0.6,0.3,1.3,0.3,1.9,0l-0.9-1.3L50.7,38.9z"/>
	<path class="st0" d="M51.9,36.4v-2.2h0.2c0.8,0.1,1.5,0.7,1.9,1.4l0.1,0.1L51.9,36.4z M52.2,34.4V36l1.5-0.5
		C53.4,35,52.8,34.6,52.2,34.4z"/>
	<path class="st0" d="M53.4,38.7l-1.3-1.8l2.1-0.7v0.1c0,0.1,0,0.3,0,0.4c0,0.7-0.2,1.3-0.7,1.8L53.4,38.7z M52.5,37L52.5,37
		l0.9,1.3c0.4-0.4,0.6-1,0.6-1.5c0-0.1,0-0.1,0-0.2L52.5,37z"/>
	<path class="st0" d="M10.8,16.7v9.6h10l2.2,7.4l0.7-7.4H27v-9.6H10.8z M12.1,20.1H21v1h-8.9L12.1,20.1z M22,24.6h-9.9v-1H22V24.6z
		 M22.9,22.8H12.1v-1h10.8L22.9,22.8z M24.2,19.3H12.1v-1h12.1L24.2,19.3z"/>
	<rect x="45.6" y="18.5" class="st0" width="2.6" height="4.5"/>
	<rect x="49.5" y="17.9" class="st0" width="2.6" height="5.1"/>
	<rect x="53.4" y="19.2" class="st0" width="2.6" height="3.8"/>
	<rect x="57.3" y="16.6" class="st0" width="2.6" height="6.4"/>
	<path class="st0" d="M54.7,18.4c-0.1,0-0.1,0-0.2,0l-3.8-1.8L47,17.6c-0.1,0-0.2,0-0.3,0l-1.3-0.4c-0.3-0.1-0.4-0.4-0.3-0.6
		c0,0,0,0,0,0c0.1-0.3,0.4-0.4,0.6-0.3l1.2,0.4l3.8-1c0.1,0,0.2,0,0.3,0l3.6,1.7l3.7-3c0.1-0.1,0.2-0.1,0.3-0.1H60
		c0.3,0,0.5,0.2,0.5,0.5c0,0.3-0.2,0.5-0.5,0.5h-1.2l-3.8,3.2C55,18.4,54.9,18.4,54.7,18.4z"/>
</g>
</svg>
