<svg xmlns="http://www.w3.org/2000/svg" viewBox="0 0 58.41 60.32"><defs><style>.cls-1{fill:#007bff;}</style></defs><g id="Camada_2" data-name="Camada 2"><g id="Layer_2" data-name="Layer 2"><path class="cls-1" d="M56.43,42.66a11.26,11.26,0,0,0-12.15-4.52L35.94,29.8l-1.76,1.76,5.6,5.6a2,2,0,1,1-2.89,2.89l-5.6-5.61-1.76,1.77,7.62,7.62A11.27,11.27,0,0,0,48,60.29l-5.1-7.43a2.24,2.24,0,0,1,.58-3.11l5.63-3.87a2.26,2.26,0,0,1,3.12.57l5.09,7.43A11.25,11.25,0,0,0,56.43,42.66ZM21.08,19.3a2,2,0,0,1,1.44.6l6.25,6.25,1.76-1.76-8.11-8.11A11.27,11.27,0,0,0,11.35,0l5.17,7.37A2.24,2.24,0,0,1,16,10.53l-5.59,3.93a2.23,2.23,0,0,1-3.12-.55L2.08,6.53A11.28,11.28,0,0,0,15.43,22.11l8.69,8.69L25.89,29l-6.25-6.25a2,2,0,0,1,0-2.89A2,2,0,0,1,21.08,19.3Z"/><rect class="cls-1" x="22.67" y="31.01" width="2.42" height="10.86" rx="0.97" transform="translate(-18.77 27.56) rotate(-45)"/><path class="cls-1" d="M24.76,41.85,11,56.88l-1.7,1.85a5.24,5.24,0,0,1-1.79,1.19A4.89,4.89,0,0,1,6,60.29a4.41,4.41,0,0,1-.52,0A5.36,5.36,0,0,1,1.6,58.74a5.43,5.43,0,0,1,0-7.69l1.84-1.69,15-13.79Z"/><path class="cls-1" d="M53,9.74l-2.62,4.12-2.32,1L27.24,35.67l-2.58-2.58L45.48,12.27l1-2.31,4.12-2.62.22.22-3,2.54A1.76,1.76,0,0,0,48,12.31c.55.54,1.72.86,2.26.32l2.49-3.12Z"/></g></g></svg>