<?xml version="1.0" encoding="utf-8"?>
<!-- Generator: Adobe Illustrator 24.1.1, SVG Export Plug-In . SVG Version: 6.00 Build 0)  -->
<svg version="1.1" id="Layer_1" xmlns="http://www.w3.org/2000/svg" xmlns:xlink="http://www.w3.org/1999/xlink" x="0px" y="0px"
	 viewBox="0 0 512 512" style="enable-background:new 0 0 512 512;" xml:space="preserve">
<style type="text/css">
	.st0{fill:#007BFF;}
</style>
<g>
	<path class="st0" d="M391.4,372v-17.1c9.9-7.2,15.8-18.7,15.8-31.1c0-12-5.7-23.5-15.1-30.6c-2.1-1.6-5-1.9-7.4-0.7
		c-2.4,1.2-4,3.7-4,6.4v17.8c0,0.2-0.1,0.3-0.2,0.3h-14.7c-0.1,0-0.2-0.1-0.2-0.3v-17.8c0-2.7-1.5-5.2-3.9-6.4
		c-2.4-1.2-5.2-0.9-7.4,0.7c-8.7,6.5-14.1,16.7-15,27.5l-59.1-19.9c-3.5-1.2-5.8-4.4-5.8-8v0c20.9-11.8,35.5-33.4,37.4-58.5
		c9.9-0.2,18.1-8.7,18.1-18.6c0-5.4-2.4-10.5-6.4-14c1.4-2.9,2.2-6.1,2.2-9.5c0-9.9-6.8-18.2-15.9-20.6v-23.5
		c0-25.8-17.4-48.2-41.9-54.8C267.8,82.7,258.9,74,248,74h-19.1c-10.9,0-19.8,8.7-20.2,19.5c-24.5,6.6-41.9,29-41.9,54.8v23.5
		c-9.1,2.4-15.9,10.7-15.9,20.6c0,3.4,0.8,6.6,2.2,9.5c-4,3.5-6.4,8.5-6.4,14c0,9.9,8.2,18.4,18.1,18.6c2,25.1,16.6,46.7,37.4,58.5
		v0c0,3.6-2.3,6.9-5.8,8l-60,20.2c-19.4,6.6-31.5,24.1-31.9,44.3v67.3c0,2.9,2.4,5.3,5.3,5.3h0c2.9,0,5.3-2.4,5.3-5.3v-67.3
		c0.2-12.2,6.3-23.8,16.7-30.5l15.3,17.1c5.1,5.7,8,13.1,8,20.8v59.8c0,2.9,2.4,5.3,5.3,5.3c2.9,0,5.3-2.4,5.3-5.3v-16.3h67.1v16.3
		c0,2.9,2.4,5.3,5.3,5.3c2.9,0,5.3-2.4,5.3-5.3v-16.3h67.1v16.3c0,2.9,2.4,5.3,5.3,5.3c2.9,0,5.3-2.4,5.3-5.3v-59.8
		c0-7.7,2.8-15.1,8-20.8l12.5-13.9c2.7,6.7,7.1,12.5,13.1,16.8v15.3c-8.3-0.9-15.7,5.2-15.7,13.6v40.6c0,7.5,6.1,13.6,13.6,13.6
		h29.3c13.7,0,24.8-11.1,24.8-24.8v-18.1C407.1,384.6,400.6,375.7,391.4,372L391.4,372z M319.4,215.7c0,4-3.2,7.6-7.3,7.9v-11.4
		c1.6-0.6,3.1-1.4,4.5-2.4C318.4,211.3,319.4,213.4,319.4,215.7L319.4,215.7z M164.8,223.6c-4-0.3-7.3-3.8-7.3-7.9
		c0-2.3,1-4.5,2.7-5.9c1.4,1,2.9,1.8,4.5,2.4V223.6z M161.6,192.3c0-5.8,4.7-10.6,10.5-10.6c0.1,0,70.8,0,70.8,0
		c2.9,0,5.3-2.4,5.3-5.3S246,171,243,171h-65.5v-22.8c0-20,12.8-37.4,31.2-43.6v32c0,2.9,2.4,5.3,5.3,5.3c2.9,0,5.3-2.4,5.3-5.3
		V94.2c0-5.2,4.3-9.5,9.5-9.5H248c5.2,0,9.5,4.3,9.5,9.5v42.4c0,2.9,2.4,5.3,5.3,5.3c2.9,0,5.3-2.4,5.3-5.3v-32
		c18.4,6.2,31.2,23.7,31.2,43.6V171h-31.5c-2.9,0-5.3,2.4-5.3,5.3c0,2.9,2.4,5.3,5.3,5.3c0,0,36.8,0,36.9,0
		c5.8,0,10.6,4.7,10.6,10.6c0,5.8-4.7,10.6-10.6,10.6H172.2C166.4,202.8,161.6,198.1,161.6,192.3L161.6,192.3z M175.4,228.5v-15
		h126.1v15c0,34.8-28.3,63.1-63.1,63.1S175.4,263.3,175.4,228.5L175.4,228.5z M212.5,297.5c8.1,3.1,16.9,4.7,26,4.7s17.9-1.7,26-4.7
		c1.6,6.4,6.5,11.6,13,13.6c-10.9,9-24.7,14-39,14c-14.3,0-28.1-5-39-14C205.9,309,210.9,303.9,212.5,297.5L212.5,297.5z
		 M238.4,382.1c-7.1-6.5-13.6-13.7-19.2-21.5c-1.7-2.4-5.1-2.9-7.5-1.1c-2.4,1.7-2.9,5.1-1.1,7.5c6.6,9,14.2,17.3,22.6,24.8v13.9
		h-67.1v-32.8c0-10.3-3.8-20.2-10.7-27.9l-13.1-14.6l43.3-14.6c2.8,10.1,6.6,19.9,11.3,29.2c1.3,2.7,4.6,3.6,7.2,2.3
		c2.6-1.3,3.7-4.5,2.3-7.2c-2.6-5.1-4.9-10.3-6.9-15.7c11.5,7.4,25,11.4,38.8,11.4c13.6,0,26.9-3.9,38.2-11
		c-3.7,9.3-8.2,18.2-13.5,26.7C256.2,362.7,247.9,372.9,238.4,382.1L238.4,382.1z M321.6,344.9c-6.9,7.7-10.7,17.6-10.7,27.9v32.8
		h-67.1v-14c10.9-10.2,20.5-21.8,28.4-34.5c8.1-12.9,14.5-26.9,18.9-41.5l43.5,14.6L321.6,344.9z M349.9,323.8
		c0-5.9,1.9-11.5,5.2-16.2v9.1c0,6,4.9,11,10.8,11h14.7c6,0,10.8-4.9,10.8-11v-9.2c3.3,4.6,5.2,10.3,5.2,16.2
		c0,9.3-4.5,17.8-12.1,22.9c-2.3,1.6-3.7,4.2-3.7,7v16.5h-15v-16.5c0-2.8-1.4-5.5-3.7-7.1C354.4,341.6,349.9,333.1,349.9,323.8
		L349.9,323.8z M396.5,413.1c0,7.8-6.4,14.2-14.2,14.2h-29.3c-1.6,0-2.9-1.3-2.9-2.9v-40.6c0-1.6,1.3-2.9,2.9-2.9h29.3
		c7.8,0,14.2,6.4,14.2,14.2V413.1z M251.2,272.7c2.4-1.7,3-5,1.3-7.4c-1.7-2.4-5-3-7.4-1.3c-1,0.7-3.2,2-6.1,2.1
		c-3.3,0.1-5.8-1.3-7-2.1c-2.4-1.7-5.7-1.1-7.4,1.3c-1.7,2.4-1.1,5.7,1.3,7.4c2.2,1.5,6.7,4.1,12.7,4.1
		C243.8,276.8,248.7,274.5,251.2,272.7L251.2,272.7z M207.3,219.5c-2.9,0-5.3,2.4-5.3,5.3v11c0,2.9,2.4,5.3,5.3,5.3
		c2.9,0,5.3-2.4,5.3-5.3v-11C212.6,221.9,210.2,219.5,207.3,219.5z M269.7,241.2c2.9,0,5.3-2.4,5.3-5.3v-11c0-2.9-2.4-5.3-5.3-5.3
		c-2.9,0-5.3,2.4-5.3,5.3v11C264.3,238.8,266.7,241.2,269.7,241.2z"/>
</g>
</svg>
