<?xml version="1.0" encoding="utf-8"?>
<!-- Generator: Adobe Illustrator 24.1.1, SVG Export Plug-In . SVG Version: 6.00 Build 0)  -->
<svg version="1.1" id="Camada_1" xmlns="http://www.w3.org/2000/svg" xmlns:xlink="http://www.w3.org/1999/xlink" x="0px" y="0px"
	 width="71.5px" height="65.6px" viewBox="0 0 71.5 65.6" style="enable-background:new 0 0 71.5 65.6;" xml:space="preserve">
<style type="text/css">
	.st0{fill:#007BFF;}
	.st1{fill:#101113;}
</style>
<g>
	<g>
		<path class="st0" d="M49.5,10.2h-5.8V8.8c0-1.2-0.9-2.1-2.1-2.1h-3c-0.6-3-3.2-5.1-6.2-5.1h-2.6c-3.1,0-5.6,2.1-6.2,5.1h-3
			c-1.2,0-2.1,0.9-2.1,2.1v1.4h-5.7c-3.5,0-6.4,2.8-6.4,6.4v41.2c0,3.5,2.8,6.4,6.4,6.4h36.9c3.5,0,6.4-2.8,6.4-6.4V16.6
			C55.9,13,53.1,10.2,49.5,10.2z M22.7,10.9h2.8c1.2,0,2.1-0.9,2.1-2.1V7.9c0-1.2,0.9-2.1,2.1-2.1h2.6c1.2,0,2.1,0.9,2.1,2.1v0.9
			c0,1.2,0.9,2.1,2.1,2.1h2.8v4.8H22.7V10.9z M19,28.3h14.2c1.2,0,2.1,0.9,2.1,2.1s-0.9,2.1-2.1,2.1H19c-1.2,0-2.1-0.9-2.1-2.1
			S17.8,28.3,19,28.3z M43.2,50.3H19c-1.2,0-2.1-0.9-2.1-2.1c0-1.2,0.9-2.1,2.1-2.1h24.1c1.2,0,2.1,0.9,2.1,2.1
			C45.3,49.3,44.4,50.3,43.2,50.3z M43.2,41.8H19c-1.2,0-2.1-0.9-2.1-2.1c0-1.2,0.9-2.1,2.1-2.1h24.1c1.2,0,2.1,0.9,2.1,2.1
			C45.3,40.8,44.4,41.8,43.2,41.8z"/>
	</g>
</g>
<g>
	<g>
		<g>
			
				<rect x="33" y="34.5" transform="matrix(0.7071 -0.7071 0.7071 0.7071 -15.5829 44.4927)" class="st0" width="25.8" height="13.1"/>
			<path class="st1" d="M50.4,29l7.5,7.5L41.4,53.1l-7.5-7.5L50.4,29 M50.4,25.5l-1.8,1.8L32.1,43.8l-1.8,1.8l1.8,1.8l7.5,7.5
				l1.8,1.8l1.8-1.8l16.5-16.5l1.8-1.8l-1.8-1.8l-7.5-7.5L50.4,25.5L50.4,25.5z"/>
		</g>
	</g>
</g>
<g>
	<g>
		<g>
			<path class="st0" d="M29.5,60.5c-1,0-1.9-0.5-2.4-1.3c-0.6-0.8-0.7-1.8-0.4-2.7l2.5-7.5c0.1-0.4,0.4-0.9,0.7-1.2l1.5-1.5l9.3,9.3
				l-1.5,1.5c-0.3,0.3-0.7,0.6-1.2,0.7l-7.6,2.5C30.1,60.5,29.8,60.5,29.5,60.5L29.5,60.5z"/>
			<path class="st1" d="M31.4,48.1l7.5,7.5l-0.6,0.6c-0.2,0.2-0.4,0.3-0.7,0.4L30,59.2c-0.2,0.1-0.4,0.1-0.6,0.1
				c-1.1,0-2.1-1.1-1.7-2.3l2.5-7.5c0.1-0.3,0.2-0.5,0.4-0.7L31.4,48.1 M31.4,44.5l-1.8,1.8L29,46.9c-0.5,0.5-0.8,1-1,1.7l-2.5,7.5
				C25,57.5,25.2,58.9,26,60c0.8,1.1,2.1,1.8,3.5,1.8c0.5,0,0.9-0.1,1.4-0.2l7.6-2.5c0.6-0.2,1.2-0.6,1.7-1l0.6-0.6l1.8-1.8
				l-1.8-1.8l-7.5-7.5L31.4,44.5L31.4,44.5z"/>
		</g>
	</g>
</g>
<g>
	<g>
		<g>
			<path class="st0" d="M51.2,26.5l5.7-5.9c1.2-1.2,2.9-1.9,4.7-1.9c1.8,0,3.5,0.7,4.6,1.9c2.6,2.6,2.6,6.7,0,9.3l-5.8,5.9
				L51.2,26.5z"/>
			<path class="st1" d="M61.6,20c1.4,0,2.8,0.5,3.8,1.5c2.1,2.1,2.1,5.5,0,7.5l-4.9,5l-7.5-7.5l4.9-5C58.8,20.5,60.2,20,61.6,20
				 M61.6,17.5c-2.1,0-4.1,0.8-5.5,2.2l-4.9,5.1l-1.7,1.8l1.7,1.7l7.5,7.5l1.8,1.8l1.8-1.8l4.9-5c3-3,3-8,0-11
				C65.7,18.3,63.7,17.5,61.6,17.5L61.6,17.5z"/>
		</g>
	</g>
</g>
</svg>
