<?xml version="1.0" encoding="utf-8"?>
<!-- Generator: Adobe Illustrator 24.1.1, SVG Export Plug-In . SVG Version: 6.00 Build 0)  -->
<svg version="1.1" id="Layer_1" xmlns="http://www.w3.org/2000/svg" xmlns:xlink="http://www.w3.org/1999/xlink" x="0px" y="0px"
	 viewBox="0 0 512 512" style="enable-background:new 0 0 512 512;" xml:space="preserve">
<style type="text/css">
	.st0{fill:#007BFF;}
</style>
<path class="st0" d="M425.2,224.8l-37.4-7.5c-2.8-9.4-6.5-18.4-11.2-27l21.1-31.8c1.7-2.6,1.4-6-0.8-8.1l-35.2-35.2
	c-2.2-2.2-5.6-2.5-8.1-0.8l-31.8,21.1c-8.6-4.7-17.6-8.4-27-11.2l-7.5-37.4c-0.6-3-3.3-5.2-6.4-5.2h-49.7c-3.1,0-5.7,2.2-6.4,5.2
	l-7.5,37.4c-9.4,2.8-18.4,6.5-27,11.2l-31.8-21.1c-2.6-1.7-6-1.4-8.1,0.8l-35.2,35.2c-2.2,2.2-2.5,5.6-0.8,8.1l21.1,31.8
	c-4.7,8.6-8.4,17.6-11.2,27l-37.4,7.5c-3,0.6-5.2,3.3-5.2,6.4v49.7c0,3.1,2.2,5.7,5.2,6.4l37.4,7.5c2.8,9.4,6.5,18.4,11.2,27
	l-21.1,31.8c-1.7,2.6-1.4,6,0.8,8.1l35.2,35.2c2.2,2.2,5.6,2.5,8.1,0.8l31.8-21.1c8.6,4.7,17.6,8.4,27,11.2l7.5,37.4
	c0.6,3,3.3,5.2,6.4,5.2h49.7c3.1,0,5.7-2.2,6.4-5.2l7.5-37.4c9.4-2.8,18.4-6.5,27-11.2l31.8,21.1c2.6,1.7,6,1.4,8.1-0.8l35.2-35.2
	c2.2-2.2,2.5-5.6,0.8-8.1l-21.1-31.8c4.7-8.6,8.4-17.6,11.2-27l37.4-7.5c3-0.6,5.2-3.3,5.2-6.4v-49.7
	C430.4,228.1,428.2,225.4,425.2,224.8z M417.4,275.5l-36.1,7.3c-2.4,0.5-4.4,2.3-5,4.7c-2.9,10.9-7.2,21.4-13,31.2
	c-1.3,2.1-1.2,4.8,0.2,6.9l20.4,30.7L356.3,384l-30.7-20.4c-2.1-1.4-4.7-1.4-6.9-0.2c-9.7,5.7-20.2,10.1-31.2,13
	c-2.4,0.6-4.2,2.6-4.7,5l-7.3,36.1h-39.1l-7.3-36.1c-0.5-2.4-2.3-4.4-4.7-5c-10.9-2.9-21.4-7.2-31.2-13c-2.1-1.2-4.8-1.2-6.9,0.2
	L155.7,384L128,356.3l20.4-30.7c1.4-2.1,1.4-4.7,0.2-6.9c-5.7-9.7-10.1-20.2-12.9-31.2c-0.6-2.4-2.6-4.2-5-4.7l-36.1-7.3v-39.1
	l36.1-7.3c2.4-0.5,4.4-2.3,5-4.7c2.9-10.9,7.2-21.4,12.9-31.2c1.3-2.1,1.2-4.8-0.2-6.9L128,155.7l27.7-27.7l30.7,20.4
	c2.1,1.4,4.7,1.4,6.9,0.2c9.7-5.7,20.2-10.1,31.2-12.9c2.4-0.6,4.2-2.6,4.7-5l7.3-36.1h39.1l7.3,36.1c0.5,2.4,2.3,4.4,4.7,5
	c10.9,2.9,21.4,7.2,31.2,12.9c2.1,1.3,4.8,1.2,6.9-0.2l30.7-20.4l27.7,27.7l-20.4,30.7c-1.4,2.1-1.4,4.7-0.2,6.9
	c5.7,9.7,10.1,20.2,13,31.2c0.6,2.4,2.6,4.2,5,4.7l36.1,7.3L417.4,275.5z"/>
<path class="st0" d="M256,166.6c-49.3,0-89.4,40-89.4,89.4s40,89.4,89.4,89.4s89.4-40,89.4-89.4C345.3,206.7,305.3,166.7,256,166.6z
	 M256,332.4c-42.2,0-76.4-34.2-76.4-76.4s34.2-76.4,76.4-76.4c42.2,0,76.4,34.2,76.4,76.4C332.3,298.2,298.2,332.3,256,332.4z"/>
<path class="st0" d="M256,193.8c-34.3,0-62.2,27.8-62.2,62.2s27.8,62.2,62.2,62.2s62.2-27.8,62.2-62.2
	C318.1,221.7,290.3,193.9,256,193.8z M256,305.2c-27.2,0-49.2-22-49.2-49.2c0-27.2,22-49.2,49.2-49.2c27.2,0,49.2,22,49.2,49.2
	C305.2,283.2,283.2,305.2,256,305.2z"/>
</svg>
