<?xml version="1.0" encoding="utf-8"?>
<!-- Generator: Adobe Illustrator 24.1.1, SVG Export Plug-In . SVG Version: 6.00 Build 0)  -->
<svg version="1.1" id="Camada_1" xmlns="http://www.w3.org/2000/svg" xmlns:xlink="http://www.w3.org/1999/xlink" x="0px" y="0px"
	 viewBox="0 0 35.5 46.8" style="enable-background:new 0 0 35.5 46.8;" xml:space="preserve">
<style type="text/css">
	.st0{fill:#007BFF;}
</style>
<path class="st0" d="M35.1,22.1L35,22l0,0L20.3,6.2l-0.4-0.4c-0.3-0.2-0.7-0.4-1.1-0.4h-5.1V4.3H5.9v1.1H1.7C0.8,5.4,0,6.1,0,6.9
	v38.4c0,0.8,0.8,1.5,1.7,1.5h32.1c0.9,0,1.7-0.7,1.7-1.5V23C35.5,22.6,35.3,22.3,35.1,22.1z M29.7,41.9H5.3V26.1h24.4V41.9z
	 M21.5,21.8l-1-10.8L30,21.5l0.5,0.6L21.5,21.8z"/>
<path class="st0" d="M24.1-7l-0.5-0.6C23.8-7.4,24-7.2,24.1-7z"/>
<rect x="5.3" class="st0" width="9.2" height="4.3"/>
<path class="st0" d="M20.7,34L20.7,34l-3-6.5l-3.1,6.8c-0.3,0.6-0.4,1.4-0.4,2.1c0.1,2.4,1.7,4.3,3.7,4.1c1.8-0.1,3.3-1.9,3.4-4.1
	C21.2,35.5,21.1,34.7,20.7,34z M17,39.4c-0.2,0.4-0.7,0-1-0.2c-0.3-0.2-1-0.9-1-1.5c0.1-0.8,0.8-0.3,1.1,0.1
	C16.7,38.4,17.1,39.2,17,39.4z"/>
</svg>
