<svg xmlns="http://www.w3.org/2000/svg" viewBox="0 0 56.74 59.97"><defs><style>.cls-1{fill:#007bff;}</style></defs><g id="Camada_2" data-name="Camada 2"><g id="Layer_2" data-name="Layer 2"><path class="cls-1" d="M34.32,10.6v.09h.26Zm20-.88a2,2,0,0,1,.36,0v0Zm.13,1h.23v-.08Z"/><path class="cls-1" d="M55.35,9.77a1.74,1.74,0,0,0-.39,0h-.24v0a2,2,0,0,0-.36,0H34.19a1.79,1.79,0,0,0-1.78,1.79V58.18A1.78,1.78,0,0,0,34.19,60H55a1.72,1.72,0,0,0,.39,0,1.78,1.78,0,0,0,1.39-1.74V11.51A1.77,1.77,0,0,0,55.35,9.77ZM48,10.69h6.5l.23-.08v.08h-.23L48,13ZM34.32,10.6l.26.09h6.5V13l-6.5-2.29h-.26Zm0,1.43,6.76,2.38v4.77L34.32,16.8Zm0,6.2,6.76,2.38v4.76L34.32,23Zm0,6.19,6.76,2.39v4.76l-6.76-2.38Zm0,6.2L41.08,33v4.76l-6.76-2.38Zm0,6.2,6.76,2.38V44l-6.76-2.38Zm0,6.19,6.76,2.38v4.77l-6.76-2.39Zm0,6.2,6.76,2.38v4.76L34.32,54Zm0,9.59V55.4l6.76,2.39v1Zm8.1,0V10.69H44V58.8Zm4.24,0H45.09V10.69h1.57Zm8.09,0H48v-1l6.76-2.39Zm0-4.83L48,56.35V51.59l6.76-2.38Zm0-6.2L48,50.16V45.39L54.75,43Zm0-6.19L48,44V39.2l6.76-2.38Zm0-6.2L48,37.76V33l6.76-2.38Zm0-6.19L48,31.57V26.81l6.76-2.39Zm0-6.2L48,25.37V20.61l6.76-2.38Zm0-6.19L48,19.18V14.41L54.75,12Z"/><rect class="cls-1" x="45.09" y="59.96" width="1.57" height="0.01"/><rect class="cls-1" x="42.42" y="59.96" width="1.56" height="0.01"/><rect class="cls-1" x="29.69" y="19.87" width="1.65" height="29.95"/><path class="cls-1" d="M28.69,30.89V38.8H0V30.89H12.53a4.14,4.14,0,0,0,.81,1.54A3.43,3.43,0,0,0,16,33.7a3.69,3.69,0,0,0,3.43-2.81Z"/><path class="cls-1" d="M18.55,2.61H13.37A2.82,2.82,0,0,1,16,0a2.43,2.43,0,0,1,1.85.91A3.26,3.26,0,0,1,18.55,2.61Z"/><path class="cls-1" d="M18.58,29v.56A2.89,2.89,0,0,1,16,32.7a2.43,2.43,0,0,1-1.85-.91,3.43,3.43,0,0,1-.77-2.2V29Z"/><path class="cls-1" d="M20.32,9h-2.5l2.69,1,.21.1h0a1.09,1.09,0,0,1-.42,2.1h-2.5l2.69,1,.21.1h0a1.09,1.09,0,0,1-.42,2.1H17.85l2.66,1a1,1,0,0,1,.23.12,1.09,1.09,0,0,1-.42,2.09h-2.5l2.69,1,.2.1a1.08,1.08,0,0,1,.7,1,1.09,1.09,0,0,1-1.09,1.09h-2.5l2.69,1,.21.1h0a1.09,1.09,0,0,1-.42,2.09h-2.5l2.69,1,.21.1h0a1.09,1.09,0,0,1-.42,2.1H11.24a1.1,1.1,0,1,1,0-2.19h2.87l-2.75-1h-.12a1.09,1.09,0,1,1,0-2.18h2.89l-2.74-1h-.15a1.1,1.1,0,1,1,0-2.19h2.87l-2.75-1h-.12a1.09,1.09,0,1,1,0-2.18h2.89l-2.74-1h-.15a1.1,1.1,0,1,1,0-2.19h2.89l-2.74-1h-.15a1.1,1.1,0,1,1,0-2.19h2.87L11.36,9h-.12a1.09,1.09,0,1,1,0-2.18h2.89l-2.74-1h-.15a1.1,1.1,0,1,1,0-2.19h9.08a1.1,1.1,0,0,1,0,2.19h-2.5l2.69,1,.21.1h0A1.09,1.09,0,0,1,20.32,9Z"/><polygon class="cls-1" points="34.58 10.69 34.32 10.69 34.32 10.6 34.58 10.69"/><path class="cls-1" d="M54.72,9.72v0a2,2,0,0,0-.36,0Z"/><polygon class="cls-1" points="54.72 10.61 54.72 10.69 54.49 10.69 54.72 10.61"/></g></g></svg>